<?xml version="1.0" encoding="UTF-8"?>
<svg id="Layer_2" data-name="Layer 2" xmlns="http://www.w3.org/2000/svg" xmlns:xlink="http://www.w3.org/1999/xlink" viewBox="0 0 166.59 242.17">
  <defs>
    <style>
      .cls-1 {
        fill: #fff;
      }

      .cls-2 {
        fill: #fffeff;
      }

      .cls-3 {
        fill: url(#radial-gradient-3);
      }

      .cls-4 {
        fill: url(#radial-gradient-4);
      }

      .cls-5 {
        fill: url(#radial-gradient-2);
      }

      .cls-6 {
        fill: url(#radial-gradient);
      }
    </style>
    <radialGradient id="radial-gradient" cx="-1511.61" cy="-591.96" fx="-1511.61" fy="-591.96" r="7.6" gradientTransform="translate(-13884.38 8410.46) rotate(179.33) scale(9.32 -13.68)" gradientUnits="userSpaceOnUse">
      <stop offset="0" stop-color="#000"/>
      <stop offset="1" stop-color="#000" stop-opacity=".66"/>
    </radialGradient>
    <radialGradient id="radial-gradient-2" cx="548.87" cy="-11946.56" fx="548.87" fy="-11946.56" r="65.52" gradientTransform="translate(-1151.04 -1744.25) rotate(-32.46) scale(.31 -.19) skewX(2.58)" gradientUnits="userSpaceOnUse">
      <stop offset="0" stop-color="#fff" stop-opacity=".53"/>
      <stop offset="1" stop-color="#000" stop-opacity="0"/>
    </radialGradient>
    <radialGradient id="radial-gradient-3" cx="517.02" cy="-11968.97" fx="517.02" fy="-11968.97" r="65.52" gradientTransform="translate(-1119.17 -1789.79) rotate(-32.46) scale(.31 -.19) skewX(2.58)" gradientUnits="userSpaceOnUse">
      <stop offset="0" stop-color="#fff" stop-opacity=".52"/>
      <stop offset="1" stop-color="#000" stop-opacity="0"/>
    </radialGradient>
    <radialGradient id="radial-gradient-4" cx="2848.67" cy="-7621.44" fx="2848.67" fy="-7621.44" r="65.52" gradientTransform="translate(-787.25 -1659.83) rotate(-3.38) scale(.39 -.25) skewX(5.7)" gradientUnits="userSpaceOnUse">
      <stop offset="0" stop-color="#fff" stop-opacity=".7"/>
      <stop offset="1" stop-color="#000" stop-opacity="0"/>
    </radialGradient>
  </defs>
  <g id="svg2">
    <g>
      <g id="Layer_1-2" data-name="Layer_1">
        <path id="path5" class="cls-1" d="m166.59,236.16c0,3.3-2.7,6-6,6H5.99c-3.3,0-5.99-2.7-5.99-5.99V6C0,2.7,2.7,0,6,0h154.58c3.3,0,6,2.7,6,6v230.16Z"/>
      </g>
      <path d="m19.95,24.76c.03-.57.08-.97.13-1.21.06-.24.25-.39.57-.45l8.45-2.03c.24-.06.46-.1.63-.1.23,0,.39.07.48.22.09.15.13.42.13.83l-1.44,30.2c-.02.38-.05.68-.1.93s-.12.44-.21.6c-.09.15-.21.28-.35.37-.15.09-.32.17-.51.23l-7.64,2.25c-.2.05-.38.07-.56.07-.28,0-.52-.08-.73-.23-.21-.16-.32-.44-.32-.87,0-.1,0-.27.02-.53.02-.25.04-.64.06-1.17.02-.53.06-1.28.1-2.25.04-.97.1-2.19.17-3.67.07-1.48.16-3.3.27-5.47.11-2.16.23-4.7.37-7.62.14-2.91.3-6.28.48-10.11Z"/>
      <path d="m34.68,39.75c0-2.78.39-5.39,1.18-7.81.79-2.42,1.97-4.54,3.54-6.34,1.57-1.8,3.53-3.21,5.88-4.24,2.35-1.03,5.1-1.54,8.24-1.54,1.97,0,3.77.23,5.4.7,1.63.46,3.08,1.11,4.35,1.93,1.27.82,2.38,1.8,3.32,2.94.94,1.14,1.73,2.38,2.34,3.72.62,1.34,1.08,2.76,1.38,4.26.3,1.5.45,3.02.45,4.57,0,3.08-.45,5.83-1.34,8.26-.9,2.43-2.16,4.49-3.78,6.18-1.63,1.68-3.58,2.97-5.86,3.86-2.28.89-4.8,1.33-7.57,1.33-2.57,0-4.93-.42-7.08-1.26-2.15-.84-4-2.03-5.54-3.59-1.55-1.55-2.75-3.43-3.61-5.62-.86-2.19-1.29-4.64-1.29-7.36Zm10.55-.95c0,1.3.1,2.62.31,3.96.2,1.33.57,2.55,1.11,3.64.54,1.09,1.27,1.98,2.21,2.66.94.68,2.13,1.03,3.58,1.03,1.04,0,1.96-.18,2.76-.54.8-.36,1.49-.84,2.08-1.45.59-.61,1.08-1.32,1.49-2.12.41-.8.73-1.66.98-2.58.24-.91.42-1.85.53-2.81.11-.96.16-1.89.16-2.78,0-.73-.05-1.5-.16-2.32-.11-.81-.27-1.62-.5-2.43-.23-.81-.53-1.57-.9-2.29-.37-.72-.82-1.37-1.34-1.93-.52-.56-1.13-1-1.83-1.33-.7-.33-1.5-.49-2.39-.49-1.06,0-1.99.17-2.79.5-.81.33-1.51.79-2.11,1.36-.6.57-1.1,1.24-1.5,2-.4.77-.72,1.58-.96,2.45-.24.87-.42,1.77-.52,2.71-.11.94-.16,1.86-.16,2.77Z"/>
      <g id="g3804">
        <g id="layer1-1">
          <path id="cl" class="cls-6" d="m118.06,168.23s11.35-9.08,11.35-21.66c0-7.37-6.54-19.6-21.66-19.6s-21.66,12.24-21.66,19.6c0,12.58,11.35,21.66,11.35,21.66-12.6-9.82-35.07-3.12-35.07,16.51,0,9.82,8.03,20.63,20.63,20.63,15.12,0,21.66-16.51,21.66-16.51,0,0,1.92,18.81-9.28,28.89h24.76c-11.2-10.07-9.28-28.89-9.28-28.89,0,0,6.54,16.51,21.66,16.51,12.61,0,20.63-10.81,20.63-20.63,0-19.62-22.47-26.32-35.07-16.51Z"/>
        </g>
        <path id="path3762" class="cls-5" d="m63.2,192.62s-1.48-18.9,4.18-24.46c6.36-6.24,25.61-2.28,25.61-2.28,0,0-13.09,4.94-18.29,9.67-4.98,4.52-11.5,17.06-11.5,17.06Z"/>
        <path id="path3762-6" class="cls-3" d="m88.7,156.19s-1.48-18.9,4.18-24.46c6.36-6.24,25.61-2.28,25.61-2.28,0,0-13.09,4.94-18.29,9.67-4.98,4.52-11.5,17.06-11.5,17.06Z"/>
        <path id="path3762-7" class="cls-4" d="m106.39,190.28s11.66-22.35,21.36-25.06c10.9-3.05,27.95,13.65,27.95,13.65,0,0-16.92-2.69-25.58-.64-8.28,1.96-23.74,12.05-23.74,12.05Z"/>
      </g>
      <g id="layer1-1-4">
        <path id="cl-9" class="cls-2" d="m43.08,82.24s4.23-3.39,4.23-8.08c0-2.75-2.44-7.31-8.08-7.31s-8.08,4.57-8.08,7.31c0,4.7,4.23,8.08,4.23,8.08-4.7-3.66-13.09-1.16-13.09,6.16,0,3.67,3,7.7,7.7,7.7,5.64,0,8.08-6.16,8.08-6.16,0,0,.72,7.02-3.46,10.78h9.24c-4.18-3.76-3.46-10.78-3.46-10.78,0,0,2.44,6.16,8.08,6.16,4.7,0,7.7-4.03,7.7-7.7,0-7.32-8.38-9.82-13.09-6.16Z"/>
        <path id="cl-9-2" data-name="cl-9" d="m43.08,82.24s4.23-3.39,4.23-8.08c0-2.75-2.44-7.31-8.08-7.31s-8.08,4.57-8.08,7.31c0,4.7,4.23,8.08,4.23,8.08-4.7-3.66-13.09-1.16-13.09,6.16,0,3.67,3,7.7,7.7,7.7,5.64,0,8.08-6.16,8.08-6.16,0,0,.72,7.02-3.46,10.78h9.24c-4.18-3.76-3.46-10.78-3.46-10.78,0,0,2.44,6.16,8.08,6.16,4.7,0,7.7-4.03,7.7-7.7,0-7.32-8.38-9.82-13.09-6.16Z"/>
      </g>
    </g>
  </g>
</svg>