<?xml version="1.0" encoding="UTF-8"?>
<svg id="Layer_2" data-name="Layer 2" xmlns="http://www.w3.org/2000/svg" xmlns:xlink="http://www.w3.org/1999/xlink" viewBox="0 0 166.59 242.17">
  <defs>
    <style>
      .cls-1 {
        fill: #fff;
      }

      .cls-2 {
        fill: #df0000;
      }

      .cls-3 {
        fill: url(#radial-gradient);
      }
    </style>
    <radialGradient id="radial-gradient" cx="-1861.85" cy="-541.82" fx="-1861.85" fy="-541.82" r="6.4" gradientTransform="translate(-12301.67 6178.01) rotate(179.72) scale(6.68 -11.01)" gradientUnits="userSpaceOnUse">
      <stop offset="0" stop-color="#df0000"/>
      <stop offset="1" stop-color="#df0000" stop-opacity=".64"/>
    </radialGradient>
  </defs>
  <g id="svg2">
    <g>
      <g id="Layer_1-2" data-name="Layer_1">
        <path id="path5" class="cls-1" d="m166.59,236.17c0,3.3-2.7,6-6,6H6c-3.3,0-6-2.7-6-6V6C0,2.7,2.7,0,6,0h154.59c3.3,0,6,2.7,6,6v230.17Z"/>
      </g>
      <g id="layer1-2">
        <path id="dl" class="cls-3" d="m121.48,148.15c-10.08-13.64-15.44-27.49-15.44-27.49,0,0-5.36,13.86-15.44,27.49-10.08,13.63-22.65,22.5-22.65,22.5,0,0,12.56,8.86,22.65,22.5,10.08,13.63,15.44,27.49,15.44,27.49,0,0,5.36-13.86,15.44-27.49,10.08-13.64,22.65-22.5,22.65-22.5,0,0-12.56-8.87-22.65-22.5Z"/>
      </g>
      <g id="layer1-2-6">
        <path id="dl-6" class="cls-2" d="m44.47,77.62c-3.75-5.08-5.75-10.23-5.75-10.23,0,0-2,5.16-5.75,10.23-3.75,5.07-8.43,8.37-8.43,8.37,0,0,4.68,3.3,8.43,8.38,3.75,5.07,5.75,10.23,5.75,10.23,0,0,2-5.16,5.75-10.23,3.75-5.08,8.43-8.38,8.43-8.38,0,0-4.68-3.3-8.43-8.37Z"/>
      </g>
      <path class="cls-2" d="m20.22,27.22c.03-.57.08-.97.13-1.21.06-.24.25-.39.57-.45l8.45-2.03c.24-.06.46-.1.63-.1.23,0,.39.07.48.22.09.15.13.42.13.83l-1.44,30.2c-.02.38-.05.68-.1.93s-.12.44-.21.6c-.09.15-.21.28-.35.37-.15.09-.32.17-.51.23l-7.64,2.25c-.2.05-.38.07-.56.07-.28,0-.52-.08-.73-.23-.21-.16-.32-.44-.32-.87,0-.1,0-.27.02-.53.02-.25.04-.64.06-1.17.02-.53.06-1.28.1-2.25.04-.97.1-2.19.17-3.67.07-1.48.16-3.3.27-5.47.11-2.16.23-4.7.37-7.62.14-2.91.3-6.28.48-10.11Z"/>
      <path class="cls-2" d="m34.95,42.21c0-2.78.39-5.39,1.18-7.81.79-2.42,1.97-4.54,3.54-6.34,1.57-1.8,3.53-3.21,5.88-4.24,2.35-1.03,5.1-1.54,8.24-1.54,1.97,0,3.77.23,5.4.7,1.63.46,3.08,1.11,4.35,1.93,1.27.82,2.38,1.8,3.32,2.94.94,1.14,1.73,2.38,2.34,3.72.62,1.34,1.08,2.76,1.38,4.26.3,1.5.45,3.02.45,4.57,0,3.08-.45,5.83-1.34,8.26-.9,2.43-2.16,4.49-3.78,6.18-1.63,1.68-3.58,2.97-5.86,3.86-2.28.89-4.8,1.33-7.57,1.33-2.57,0-4.93-.42-7.08-1.26-2.15-.84-4-2.03-5.54-3.59-1.55-1.55-2.75-3.43-3.61-5.62-.86-2.19-1.29-4.64-1.29-7.36Zm10.55-.95c0,1.3.1,2.62.31,3.96.2,1.33.57,2.55,1.11,3.64.54,1.09,1.27,1.98,2.21,2.66.94.68,2.13,1.03,3.58,1.03,1.04,0,1.96-.18,2.76-.54.8-.36,1.49-.84,2.08-1.45.59-.61,1.08-1.32,1.49-2.12.41-.8.73-1.66.98-2.58.24-.91.42-1.85.53-2.81.11-.96.16-1.89.16-2.78,0-.73-.05-1.5-.16-2.32-.11-.81-.27-1.62-.5-2.43-.23-.81-.53-1.57-.9-2.29-.37-.72-.82-1.37-1.34-1.93-.52-.56-1.13-1-1.83-1.33-.7-.33-1.5-.49-2.39-.49-1.06,0-1.99.17-2.79.5-.81.33-1.51.79-2.11,1.36-.6.57-1.1,1.24-1.5,2-.4.77-.72,1.58-.96,2.45-.24.87-.42,1.77-.52,2.71-.11.94-.16,1.86-.16,2.77Z"/>
    </g>
  </g>
</svg>