<?xml version="1.0" encoding="UTF-8"?>
<svg id="Layer_2" data-name="Layer 2" xmlns="http://www.w3.org/2000/svg" xmlns:xlink="http://www.w3.org/1999/xlink" viewBox="0 0 166.59 242.17">
  <defs>
    <style>
      .cls-1 {
        fill: #fff;
      }

      .cls-2 {
        fill: #df0000;
      }

      .cls-3 {
        fill: url(#radial-gradient-3);
      }

      .cls-4 {
        fill: url(#radial-gradient-2);
      }

      .cls-5 {
        fill: url(#radial-gradient);
      }
    </style>
    <radialGradient id="radial-gradient" cx="-1133.3" cy="-544.47" fx="-1133.3" fy="-544.47" r="6.4" gradientTransform="translate(-7629.67 6132.7) rotate(-180) scale(6.83 -10.99)" gradientUnits="userSpaceOnUse">
      <stop offset="0" stop-color="#df0000"/>
      <stop offset="1" stop-color="#df0000" stop-opacity=".67"/>
    </radialGradient>
    <radialGradient id="radial-gradient-2" cx="-458.77" cy="-8974.9" fx="-458.77" fy="-8974.9" r="65.52" gradientTransform="translate(-805.15 -1786.29) rotate(-31.19) scale(.39 -.23) skewX(1.04)" gradientUnits="userSpaceOnUse">
      <stop offset="0" stop-color="#fff" stop-opacity=".31"/>
      <stop offset="1" stop-color="#000" stop-opacity="0"/>
    </radialGradient>
    <radialGradient id="radial-gradient-3" cx="947.72" cy="-9431.98" fx="947.72" fy="-9431.98" r="65.52" gradientTransform="translate(-715.91 -1730.88) rotate(-23.03) scale(.32 -.22) skewX(5.07)" gradientUnits="userSpaceOnUse">
      <stop offset="0" stop-color="#fff" stop-opacity=".29"/>
      <stop offset="1" stop-color="#000" stop-opacity="0"/>
    </radialGradient>
  </defs>
  <g id="svg2">
    <g>
      <g id="Layer_1-2" data-name="Layer_1">
        <path id="path5" class="cls-1" d="m166.59,236.17c0,3.3-2.7,5.99-5.99,5.99H5.99c-3.29,0-5.99-2.69-5.99-5.99V6C0,2.7,2.7,0,6,0h154.6c3.3,0,6,2.7,6,6v230.18Z"/>
      </g>
      <path class="cls-2" d="m19.49,25.22c.03-.57.08-.97.13-1.21.06-.24.25-.39.57-.45l8.45-2.03c.24-.06.46-.1.63-.1.23,0,.39.07.48.22.09.15.13.42.13.83l-1.44,30.2c-.02.38-.05.68-.1.93s-.12.44-.21.6c-.09.15-.21.28-.35.37s-.32.17-.51.23l-7.64,2.25c-.2.05-.38.07-.56.07-.28,0-.52-.08-.73-.23-.21-.16-.32-.44-.32-.87,0-.1,0-.27.02-.53s.04-.64.06-1.17.06-1.28.1-2.25c.04-.97.1-2.19.17-3.67s.16-3.3.27-5.47c.11-2.16.23-4.7.37-7.62.14-2.91.3-6.28.48-10.11Z"/>
      <path class="cls-2" d="m34.21,40.21c0-2.78.39-5.39,1.18-7.81.79-2.43,1.97-4.54,3.54-6.34,1.57-1.8,3.53-3.21,5.88-4.24,2.35-1.03,5.1-1.54,8.24-1.54,1.97,0,3.77.23,5.4.7,1.63.46,3.08,1.11,4.35,1.93,1.27.82,2.38,1.8,3.32,2.94s1.73,2.38,2.34,3.72c.62,1.34,1.08,2.76,1.38,4.26.3,1.5.45,3.02.45,4.57,0,3.08-.45,5.83-1.34,8.26s-2.16,4.49-3.78,6.18c-1.63,1.68-3.58,2.97-5.86,3.86-2.28.89-4.8,1.33-7.57,1.33-2.57,0-4.93-.42-7.08-1.26s-4-2.04-5.54-3.59c-1.55-1.55-2.75-3.43-3.61-5.62-.86-2.19-1.29-4.64-1.29-7.36Zm10.55-.95c0,1.3.1,2.62.31,3.96.2,1.34.57,2.55,1.11,3.64s1.27,1.98,2.21,2.66c.94.68,2.13,1.03,3.58,1.03,1.04,0,1.96-.18,2.76-.54.8-.36,1.49-.84,2.08-1.45.59-.61,1.08-1.32,1.49-2.12.41-.8.73-1.66.98-2.58.24-.91.42-1.85.53-2.81.11-.96.16-1.89.16-2.78,0-.73-.05-1.51-.16-2.32-.11-.81-.27-1.62-.5-2.43-.23-.81-.53-1.57-.9-2.29-.37-.72-.82-1.37-1.34-1.93-.52-.56-1.13-1-1.83-1.33s-1.5-.49-2.39-.49c-1.06,0-1.99.17-2.79.5s-1.51.79-2.11,1.36-1.1,1.24-1.5,2c-.4.77-.72,1.58-.96,2.45s-.42,1.77-.52,2.71c-.11.94-.16,1.86-.16,2.77Z"/>
      <g id="g3036">
        <g id="layer1-9">
          <path id="hl" class="cls-5" d="m126.97,130.03c-17.71,0-20.07,17.77-20.07,17.77,0,0-2.36-17.77-20.07-17.77-12.4,0-23.61,7.97-23.61,23,0,19.86,35.93,39.83,43.68,68.99,7.38-29.14,43.68-49.13,43.68-68.99,0-15.03-11.22-23-23.61-23Z"/>
        </g>
        <path id="path3762-6-4" class="cls-4" d="m64.33,167.02s-1.89-22.99,5.34-29.74c8.13-7.59,32.73-2.77,32.73-2.77,0,0-16.72,6.01-23.38,11.76-6.36,5.49-14.69,20.75-14.69,20.75Z"/>
        <path id="path3762-6-2-3" class="cls-3" d="m106.2,160.17s3.46-21.39,10.52-25.9c7.94-5.08,26.02,4.93,26.02,4.93,0,0-13.38,4.83-19.78,8.55-6.12,3.56-16.76,12.43-16.76,12.43Z"/>
      </g>
      <g id="layer1-9-6">
        <path id="hl-8" class="cls-2" d="m46.32,68.22c-6.52,0-7.39,6.54-7.39,6.54,0,0-.87-6.54-7.39-6.54-4.56,0-8.69,2.93-8.69,8.46,0,7.31,13.22,14.66,16.07,25.39,2.72-10.72,16.07-18.08,16.07-25.39,0-5.53-4.13-8.46-8.69-8.46Z"/>
      </g>
    </g>
  </g>
</svg>