<?xml version="1.0" encoding="UTF-8"?>
<svg id="Layer_2" data-name="Layer 2" xmlns="http://www.w3.org/2000/svg" xmlns:xlink="http://www.w3.org/1999/xlink" viewBox="0 0 166.59 242.17">
  <defs>
    <style>
      .cls-1 {
        fill: #fff;
      }

      .cls-2 {
        fill: #fffeff;
      }

      .cls-3 {
        fill: url(#radial-gradient-3);
      }

      .cls-4 {
        fill: url(#radial-gradient-4);
      }

      .cls-5 {
        fill: url(#radial-gradient-2);
      }

      .cls-6 {
        fill: url(#radial-gradient);
      }
    </style>
    <radialGradient id="radial-gradient" cx="-1536.99" cy="-1668.19" fx="-1536.99" fy="-1668.19" r="7.6" gradientTransform="translate(-13948.43 23137.81) rotate(179.33) scale(9.32 -13.68)" gradientUnits="userSpaceOnUse">
      <stop offset="0" stop-color="#000"/>
      <stop offset="1" stop-color="#000" stop-opacity=".66"/>
    </radialGradient>
    <radialGradient id="radial-gradient-2" cx="-1169.82" cy="-18324.47" fx="-1169.82" fy="-18324.47" r="65.52" gradientTransform="translate(-1273.71 -3104.59) rotate(-32.46) scale(.31 -.19) skewX(2.58)" gradientUnits="userSpaceOnUse">
      <stop offset="0" stop-color="#fff" stop-opacity=".53"/>
      <stop offset="1" stop-color="#000" stop-opacity="0"/>
    </radialGradient>
    <radialGradient id="radial-gradient-3" cx="-1201.67" cy="-18346.88" fx="-1201.67" fy="-18346.88" r="65.52" gradientTransform="translate(-1241.84 -3150.14) rotate(-32.46) scale(.31 -.19) skewX(2.58)" gradientUnits="userSpaceOnUse">
      <stop offset="0" stop-color="#fff" stop-opacity=".52"/>
      <stop offset="1" stop-color="#000" stop-opacity="0"/>
    </radialGradient>
    <radialGradient id="radial-gradient-4" cx="3181.98" cy="-13503.57" fx="3181.98" fy="-13503.57" r="65.52" gradientTransform="translate(-773.88 -3109.07) rotate(-3.38) scale(.39 -.25) skewX(5.7)" gradientUnits="userSpaceOnUse">
      <stop offset="0" stop-color="#fff" stop-opacity=".7"/>
      <stop offset="1" stop-color="#000" stop-opacity="0"/>
    </radialGradient>
  </defs>
  <g id="svg2">
    <g>
      <g id="Layer_1-2" data-name="Layer_1">
        <path id="path5" class="cls-1" d="m166.59,236.16c0,3.3-2.7,6-6,6H5.99c-3.3,0-5.99-2.7-5.99-5.99V6C0,2.7,2.7,0,6,0h154.58c3.3,0,6,2.7,6,6v230.16Z"/>
      </g>
      <path d="m37.65,57.55c-2.25,0-4.2-.38-5.87-1.12-1.67-.75-3.06-1.77-4.17-3.06-1.12-1.29-1.95-2.81-2.49-4.54-.55-1.73-.82-3.58-.82-5.53,0-1.53.2-2.99.59-4.39.39-1.4.92-2.75,1.58-4.05.66-1.3,1.42-2.57,2.29-3.8.87-1.23,1.77-2.43,2.71-3.61.94-1.18,1.88-2.34,2.84-3.48.96-1.14,1.86-2.28,2.71-3.42.13-.16.26-.34.4-.52.14-.19.29-.36.45-.51.16-.15.33-.28.51-.39.18-.11.38-.16.61-.16h6.13c.41,0,.76.06,1.05.17.29.11.44.29.44.54,0,.23-.13.5-.39.81-1.43,1.68-2.74,3.45-3.92,5.31-1.18,1.86-2.28,3.82-3.31,5.87.59-.16,1.15-.28,1.68-.34.54-.06,1.11-.1,1.71-.1,1.79,0,3.35.35,4.68,1.05,1.33.7,2.42,1.61,3.3,2.72.87,1.12,1.52,2.37,1.95,3.76.43,1.39.65,2.78.65,4.16,0,2.2-.33,4.2-.98,5.99-.65,1.8-1.62,3.34-2.91,4.62-1.29,1.28-2.88,2.27-4.8,2.98-1.91.71-4.12,1.06-6.63,1.06Zm-2.25-12.94c0,.47.04,1.01.12,1.62.08.61.24,1.19.48,1.75.24.55.55,1.02.95,1.4.4.38.92.57,1.55.57s1.15-.13,1.6-.39c.45-.26.83-.6,1.13-1.03.31-.42.55-.91.73-1.45.18-.54.32-1.11.42-1.68.1-.58.16-1.15.18-1.72.02-.57.04-1.08.04-1.54,0-.55-.02-1.13-.07-1.72-.05-.59-.17-1.13-.38-1.6-.2-.47-.5-.86-.9-1.17-.4-.31-.95-.46-1.65-.46-.93,0-1.67.25-2.22.76-.55.5-.98,1.13-1.27,1.88-.29.75-.48,1.55-.57,2.42-.09.86-.13,1.65-.13,2.37Z"/>
      <g id="g3804">
        <g id="layer1-1">
          <path id="cl" class="cls-6" d="m118.06,168.23s11.35-9.08,11.35-21.66c0-7.37-6.54-19.6-21.66-19.6s-21.66,12.24-21.66,19.6c0,12.58,11.35,21.66,11.35,21.66-12.6-9.82-35.07-3.12-35.07,16.51,0,9.82,8.03,20.63,20.63,20.63,15.12,0,21.66-16.51,21.66-16.51,0,0,1.92,18.81-9.28,28.89h24.76c-11.2-10.07-9.28-28.89-9.28-28.89,0,0,6.54,16.51,21.66,16.51,12.61,0,20.63-10.81,20.63-20.63,0-19.62-22.47-26.32-35.07-16.51Z"/>
        </g>
        <path id="path3762" class="cls-5" d="m63.2,192.62s-1.48-18.9,4.18-24.46c6.36-6.24,25.61-2.28,25.61-2.28,0,0-13.09,4.94-18.29,9.67-4.98,4.52-11.5,17.06-11.5,17.06Z"/>
        <path id="path3762-6" class="cls-3" d="m88.7,156.19s-1.48-18.9,4.18-24.46c6.36-6.24,25.61-2.28,25.61-2.28,0,0-13.09,4.94-18.29,9.67-4.98,4.52-11.5,17.06-11.5,17.06Z"/>
        <path id="path3762-7" class="cls-4" d="m106.39,190.28s11.66-22.35,21.36-25.06c10.9-3.05,27.95,13.65,27.95,13.65,0,0-16.92-2.69-25.58-.64-8.28,1.96-23.74,12.05-23.74,12.05Z"/>
      </g>
      <g id="layer1-1-4">
        <path id="cl-9" class="cls-2" d="m43.08,82.24s4.23-3.39,4.23-8.08c0-2.75-2.44-7.31-8.08-7.31s-8.08,4.57-8.08,7.31c0,4.7,4.23,8.08,4.23,8.08-4.7-3.66-13.09-1.16-13.09,6.16,0,3.67,3,7.7,7.7,7.7,5.64,0,8.08-6.16,8.08-6.16,0,0,.72,7.02-3.46,10.78h9.24c-4.18-3.76-3.46-10.78-3.46-10.78,0,0,2.44,6.16,8.08,6.16,4.7,0,7.7-4.03,7.7-7.7,0-7.32-8.38-9.82-13.09-6.16Z"/>
        <path id="cl-9-2" data-name="cl-9" d="m43.08,82.24s4.23-3.39,4.23-8.08c0-2.75-2.44-7.31-8.08-7.31s-8.08,4.57-8.08,7.31c0,4.7,4.23,8.08,4.23,8.08-4.7-3.66-13.09-1.16-13.09,6.16,0,3.67,3,7.7,7.7,7.7,5.64,0,8.08-6.16,8.08-6.16,0,0,.72,7.02-3.46,10.78h9.24c-4.18-3.76-3.46-10.78-3.46-10.78,0,0,2.44,6.16,8.08,6.16,4.7,0,7.7-4.03,7.7-7.7,0-7.32-8.38-9.82-13.09-6.16Z"/>
      </g>
    </g>
  </g>
</svg>