<?xml version="1.0" encoding="UTF-8"?>
<svg id="Layer_2" data-name="Layer 2" xmlns="http://www.w3.org/2000/svg" xmlns:xlink="http://www.w3.org/1999/xlink" viewBox="0 0 166.59 242.17">
  <defs>
    <style>
      .cls-1 {
        fill: #fff;
      }

      .cls-2 {
        fill: #df0000;
      }

      .cls-3 {
        fill: url(#radial-gradient);
      }
    </style>
    <radialGradient id="radial-gradient" cx="-1888.87" cy="-1597.48" fx="-1888.87" fy="-1597.48" r="6.4" gradientTransform="translate(-12425.03 17803.63) rotate(179.72) scale(6.68 -11.01)" gradientUnits="userSpaceOnUse">
      <stop offset="0" stop-color="#df0000"/>
      <stop offset="1" stop-color="#df0000" stop-opacity=".64"/>
    </radialGradient>
  </defs>
  <g id="svg2">
    <g>
      <g id="Layer_1-2" data-name="Layer_1">
        <path id="path5" class="cls-1" d="m166.59,236.17c0,3.3-2.7,6-6,6H6c-3.3,0-6-2.7-6-6V6C0,2.7,2.7,0,6,0h154.59c3.3,0,6,2.7,6,6v230.17Z"/>
      </g>
      <g id="layer1-2">
        <path id="dl" class="cls-3" d="m121.48,148.15c-10.08-13.64-15.44-27.49-15.44-27.49,0,0-5.36,13.86-15.44,27.49-10.08,13.63-22.65,22.5-22.65,22.5,0,0,12.56,8.86,22.65,22.5,10.08,13.63,15.44,27.49,15.44,27.49,0,0,5.36-13.86,15.44-27.49,10.08-13.64,22.65-22.5,22.65-22.5,0,0-12.56-8.87-22.65-22.5Z"/>
      </g>
      <g id="layer1-2-6">
        <path id="dl-6" class="cls-2" d="m44.47,77.62c-3.75-5.08-5.75-10.23-5.75-10.23,0,0-2,5.16-5.75,10.23-3.75,5.07-8.43,8.37-8.43,8.37,0,0,4.68,3.3,8.43,8.38,3.75,5.07,5.75,10.23,5.75,10.23,0,0,2-5.16,5.75-10.23,3.75-5.08,8.43-8.38,8.43-8.38,0,0-4.68-3.3-8.43-8.37Z"/>
      </g>
      <path class="cls-2" d="m37.92,60.01c-2.25,0-4.2-.38-5.87-1.12-1.67-.75-3.06-1.77-4.17-3.06-1.12-1.29-1.95-2.81-2.49-4.54-.55-1.73-.82-3.58-.82-5.53,0-1.53.2-2.99.59-4.39.39-1.4.92-2.75,1.58-4.05.66-1.3,1.42-2.57,2.29-3.8.87-1.23,1.77-2.43,2.71-3.61.94-1.18,1.88-2.34,2.84-3.48.96-1.14,1.86-2.28,2.71-3.42.13-.16.26-.34.4-.52.14-.19.29-.36.45-.51.16-.15.33-.28.51-.39.18-.11.38-.16.61-.16h6.13c.41,0,.76.06,1.05.17.29.11.44.29.44.54,0,.23-.13.5-.39.81-1.43,1.68-2.74,3.45-3.92,5.31-1.18,1.86-2.28,3.82-3.31,5.87.59-.16,1.15-.28,1.68-.34.54-.06,1.11-.1,1.71-.1,1.79,0,3.35.35,4.68,1.05,1.33.7,2.42,1.61,3.3,2.72.87,1.12,1.52,2.37,1.95,3.76.43,1.39.65,2.78.65,4.16,0,2.2-.33,4.2-.98,5.99-.65,1.8-1.62,3.34-2.91,4.62-1.29,1.28-2.88,2.27-4.8,2.98-1.91.71-4.12,1.06-6.63,1.06Zm-2.25-12.94c0,.47.04,1.01.12,1.62.08.61.24,1.19.48,1.75.24.55.55,1.02.95,1.4.4.38.92.57,1.55.57s1.15-.13,1.6-.39c.45-.26.83-.6,1.13-1.03.31-.42.55-.91.73-1.45.18-.54.32-1.11.42-1.68.1-.58.16-1.15.18-1.72.02-.57.04-1.08.04-1.54,0-.55-.02-1.13-.07-1.72-.05-.59-.17-1.13-.38-1.6-.2-.47-.5-.86-.9-1.17-.4-.31-.95-.46-1.65-.46-.93,0-1.67.25-2.22.76-.55.5-.98,1.13-1.27,1.88-.29.75-.48,1.55-.57,2.42-.09.86-.13,1.65-.13,2.37Z"/>
    </g>
  </g>
</svg>