<?xml version="1.0" encoding="UTF-8"?>
<svg id="Layer_2" data-name="Layer 2" xmlns="http://www.w3.org/2000/svg" xmlns:xlink="http://www.w3.org/1999/xlink" viewBox="0 0 166.59 242.17">
  <defs>
    <style>
      .cls-1 {
        fill: #fff;
      }

      .cls-2 {
        fill: #df0000;
      }

      .cls-3 {
        fill: url(#radial-gradient-3);
      }

      .cls-4 {
        fill: url(#radial-gradient-2);
      }

      .cls-5 {
        fill: url(#radial-gradient);
      }
    </style>
    <radialGradient id="radial-gradient" cx="-1161.09" cy="-1599.91" fx="-1161.09" fy="-1599.91" r="6.4" gradientTransform="translate(-7819.37 17730.58) rotate(-180) scale(6.83 -10.99)" gradientUnits="userSpaceOnUse">
      <stop offset="0" stop-color="#df0000"/>
      <stop offset="1" stop-color="#df0000" stop-opacity=".67"/>
    </radialGradient>
    <radialGradient id="radial-gradient-2" cx="-1879.18" cy="-14423.36" fx="-1879.18" fy="-14423.36" r="65.52" gradientTransform="translate(-955.18 -3189.68) rotate(-31.19) scale(.39 -.23) skewX(1.04)" gradientUnits="userSpaceOnUse">
      <stop offset="0" stop-color="#fff" stop-opacity=".31"/>
      <stop offset="1" stop-color="#000" stop-opacity="0"/>
    </radialGradient>
    <radialGradient id="radial-gradient-3" cx="11.09" cy="-15561.05" fx="11.09" fy="-15561.05" r="65.52" gradientTransform="translate(-801.33 -3139.75) rotate(-23.03) scale(.32 -.22) skewX(5.07)" gradientUnits="userSpaceOnUse">
      <stop offset="0" stop-color="#fff" stop-opacity=".29"/>
      <stop offset="1" stop-color="#000" stop-opacity="0"/>
    </radialGradient>
  </defs>
  <g id="svg2">
    <g>
      <g id="Layer_1-2" data-name="Layer_1">
        <path id="path5" class="cls-1" d="m166.59,236.17c0,3.3-2.7,5.99-5.99,5.99H5.99c-3.29,0-5.99-2.69-5.99-5.99V6C0,2.7,2.7,0,6,0h154.6c3.3,0,6,2.7,6,6v230.18Z"/>
      </g>
      <path class="cls-2" d="m37.18,58.01c-2.25,0-4.2-.38-5.87-1.12-1.67-.75-3.06-1.77-4.17-3.06-1.12-1.29-1.95-2.81-2.49-4.54-.55-1.73-.82-3.58-.82-5.53,0-1.53.2-2.99.59-4.39.39-1.4.92-2.75,1.58-4.05.66-1.3,1.42-2.57,2.29-3.8.87-1.23,1.77-2.43,2.71-3.61.94-1.18,1.88-2.34,2.84-3.48.96-1.14,1.86-2.28,2.71-3.42.13-.16.26-.34.4-.52.14-.19.29-.36.45-.51.16-.15.33-.28.51-.39.18-.11.38-.16.61-.16h6.13c.41,0,.76.06,1.05.17.29.11.44.29.44.54,0,.23-.13.5-.39.81-1.43,1.68-2.74,3.45-3.92,5.31-1.18,1.86-2.28,3.82-3.31,5.87.59-.16,1.15-.28,1.68-.34.54-.06,1.11-.1,1.71-.1,1.79,0,3.35.35,4.68,1.05,1.33.7,2.42,1.61,3.3,2.72.87,1.12,1.52,2.37,1.95,3.76.43,1.39.65,2.78.65,4.16,0,2.2-.33,4.2-.98,5.99-.65,1.8-1.62,3.34-2.91,4.62-1.29,1.28-2.88,2.27-4.8,2.98-1.91.71-4.12,1.06-6.63,1.06Zm-2.25-12.94c0,.47.04,1.01.12,1.62.08.61.24,1.19.48,1.75.24.55.55,1.02.95,1.4.4.38.92.57,1.55.57s1.15-.13,1.6-.39c.45-.26.83-.6,1.13-1.03.31-.42.55-.91.73-1.45.18-.54.32-1.11.42-1.68.1-.58.16-1.15.18-1.72.02-.57.04-1.08.04-1.54,0-.55-.02-1.13-.07-1.72-.05-.59-.17-1.13-.38-1.6-.2-.47-.5-.86-.9-1.17-.4-.31-.95-.46-1.65-.46-.93,0-1.67.25-2.22.76-.55.5-.98,1.13-1.27,1.88-.29.75-.48,1.55-.57,2.42-.09.86-.13,1.65-.13,2.37Z"/>
      <g id="g3036">
        <g id="layer1-9">
          <path id="hl" class="cls-5" d="m126.97,130.03c-17.71,0-20.07,17.77-20.07,17.77,0,0-2.36-17.77-20.07-17.77-12.4,0-23.61,7.97-23.61,23,0,19.86,35.93,39.83,43.68,68.99,7.38-29.14,43.68-49.13,43.68-68.99,0-15.03-11.22-23-23.61-23Z"/>
        </g>
        <path id="path3762-6-4" class="cls-4" d="m64.33,167.02s-1.89-22.99,5.34-29.74c8.13-7.59,32.73-2.77,32.73-2.77,0,0-16.72,6.01-23.38,11.76-6.36,5.49-14.69,20.75-14.69,20.75Z"/>
        <path id="path3762-6-2-3" class="cls-3" d="m106.2,160.17s3.46-21.39,10.52-25.9c7.94-5.08,26.02,4.93,26.02,4.93,0,0-13.38,4.83-19.78,8.55-6.12,3.56-16.76,12.43-16.76,12.43Z"/>
      </g>
      <g id="layer1-9-6">
        <path id="hl-8" class="cls-2" d="m46.32,68.22c-6.52,0-7.39,6.54-7.39,6.54,0,0-.87-6.54-7.39-6.54-4.56,0-8.69,2.93-8.69,8.46,0,7.31,13.22,14.66,16.07,25.39,2.72-10.72,16.07-18.08,16.07-25.39,0-5.53-4.13-8.46-8.69-8.46Z"/>
      </g>
    </g>
  </g>
</svg>