<?xml version="1.0" encoding="UTF-8"?>
<svg id="Layer_2" data-name="Layer 2" xmlns="http://www.w3.org/2000/svg" xmlns:xlink="http://www.w3.org/1999/xlink" viewBox="0 0 166.59 242.17">
  <defs>
    <style>
      .cls-1 {
        fill: #fff;
      }

      .cls-2 {
        fill: url(#radial-gradient);
      }
    </style>
    <radialGradient id="radial-gradient" cx="-1351.75" cy="-1653.16" fx="-1351.75" fy="-1653.16" r="6.4" gradientTransform="translate(-13720 23586.21) rotate(-179.22) scale(9.99 -14.29)" gradientUnits="userSpaceOnUse">
      <stop offset="0" stop-color="#000"/>
      <stop offset="1" stop-color="#000" stop-opacity=".65"/>
    </radialGradient>
  </defs>
  <g id="svg2">
    <g>
      <g id="Layer_1-2" data-name="Layer_1">
        <path id="path5" class="cls-1" d="m166.59,236.17c0,3.3-2.7,5.99-5.99,5.99H5.99c-3.29,0-5.99-2.69-5.99-5.99V6C0,2.7,2.7,0,6,0h154.6c3.3,0,6,2.7,6,6v230.18Z"/>
      </g>
      <path d="m37.18,58.01c-2.25,0-4.2-.38-5.87-1.12s-3.06-1.77-4.17-3.06c-1.12-1.29-1.95-2.81-2.49-4.54-.54-1.73-.82-3.58-.82-5.53,0-1.53.2-2.99.59-4.39.39-1.4.92-2.75,1.57-4.05.66-1.3,1.42-2.57,2.29-3.8.87-1.23,1.77-2.43,2.71-3.61.94-1.18,1.88-2.34,2.84-3.48.96-1.14,1.86-2.28,2.71-3.42.13-.16.26-.34.4-.52.14-.19.29-.36.45-.51.16-.15.33-.28.51-.39.18-.11.38-.16.61-.16h6.13c.41,0,.76.06,1.05.17.29.11.44.29.44.54,0,.23-.13.5-.39.81-1.43,1.68-2.74,3.45-3.92,5.31-1.18,1.86-2.28,3.82-3.31,5.87.59-.16,1.15-.28,1.68-.34.54-.06,1.11-.1,1.71-.1,1.79,0,3.35.35,4.67,1.05,1.33.7,2.42,1.61,3.3,2.72.87,1.12,1.52,2.37,1.95,3.76.43,1.39.65,2.78.65,4.16,0,2.2-.33,4.2-.98,5.99-.65,1.8-1.62,3.34-2.91,4.62-1.29,1.28-2.89,2.27-4.8,2.98-1.91.71-4.12,1.06-6.63,1.06Zm-2.25-12.94c0,.47.04,1.01.12,1.62.08.61.24,1.19.48,1.75.24.55.55,1.02.95,1.4.4.38.92.57,1.55.57s1.15-.13,1.6-.39c.45-.26.83-.6,1.14-1.03.31-.42.55-.91.73-1.45.18-.54.32-1.11.42-1.68.1-.58.16-1.15.18-1.72.02-.57.04-1.08.04-1.54,0-.55-.02-1.13-.07-1.72-.05-.59-.18-1.13-.38-1.6-.2-.47-.5-.86-.9-1.17-.4-.31-.95-.46-1.65-.46-.93,0-1.67.25-2.22.76-.55.5-.98,1.13-1.27,1.88-.29.75-.48,1.55-.57,2.42-.09.86-.13,1.65-.13,2.37Z"/>
      <g id="g3886">
        <g id="layer1-7-1">
          <path id="sl-5" class="cls-2" d="m147.97,188.11c-1.22-18.72-39.09-53.94-40.31-62.75-1.22,8.81-39.09,44.03-40.31,62.75-.85,13.23,8.55,18.72,17.1,18.72,9.26-.1,16.91-12.92,19.54-15.41,1.22,3.3-8.09,30.82-10.99,30.82h29.32c-2.91,0-12.21-27.52-10.99-30.82,2.31,2.29,9.07,15.03,19.55,15.41,8.55,0,17.95-5.48,17.09-18.72Z"/>
        </g>
      </g>
      <g id="layer1-7">
        <path id="sl" d="m53.14,88.96c-.44-6.72-14.02-19.35-14.46-22.52-.44,3.16-14.02,15.8-14.46,22.52-.31,4.75,3.07,6.72,6.14,6.72,3.32-.04,6.07-4.64,7.01-5.53.44,1.19-2.9,11.06-3.94,11.06h10.52c-1.04,0-4.38-9.87-3.94-11.06.83.82,3.25,5.39,7.01,5.53,3.07,0,6.44-1.97,6.13-6.72Z"/>
      </g>
    </g>
  </g>
</svg>