<?xml version="1.0" encoding="UTF-8"?>
<svg id="Layer_2" data-name="Layer 2" xmlns="http://www.w3.org/2000/svg" xmlns:xlink="http://www.w3.org/1999/xlink" viewBox="0 0 166.59 242.17">
  <defs>
    <style>
      .cls-1 {
        fill: #fff;
      }

      .cls-2 {
        fill: #fffeff;
      }

      .cls-3 {
        fill: url(#radial-gradient-3);
      }

      .cls-4 {
        fill: url(#radial-gradient-4);
      }

      .cls-5 {
        fill: url(#radial-gradient-2);
      }

      .cls-6 {
        fill: url(#radial-gradient);
      }
    </style>
    <radialGradient id="radial-gradient" cx="-1527.8" cy="-1402.86" fx="-1527.8" fy="-1402.86" r="7.6" gradientTransform="translate(-13905.28 19506.7) rotate(179.33) scale(9.32 -13.68)" gradientUnits="userSpaceOnUse">
      <stop offset="0" stop-color="#000"/>
      <stop offset="1" stop-color="#000" stop-opacity=".66"/>
    </radialGradient>
    <radialGradient id="radial-gradient-2" cx="-750.94" cy="-16744.61" fx="-750.94" fy="-16744.61" r="65.52" gradientTransform="translate(-1241.52 -2768.77) rotate(-32.46) scale(.31 -.19) skewX(2.58)" gradientUnits="userSpaceOnUse">
      <stop offset="0" stop-color="#fff" stop-opacity=".53"/>
      <stop offset="1" stop-color="#000" stop-opacity="0"/>
    </radialGradient>
    <radialGradient id="radial-gradient-3" cx="-782.8" cy="-16767.02" fx="-782.8" fy="-16767.02" r="65.52" gradientTransform="translate(-1209.65 -2814.32) rotate(-32.46) scale(.31 -.19) skewX(2.58)" gradientUnits="userSpaceOnUse">
      <stop offset="0" stop-color="#fff" stop-opacity=".52"/>
      <stop offset="1" stop-color="#000" stop-opacity="0"/>
    </radialGradient>
    <radialGradient id="radial-gradient-4" cx="3095.59" cy="-12052.78" fx="3095.59" fy="-12052.78" r="65.52" gradientTransform="translate(-775.55 -2751.72) rotate(-3.38) scale(.39 -.25) skewX(5.7)" gradientUnits="userSpaceOnUse">
      <stop offset="0" stop-color="#fff" stop-opacity=".7"/>
      <stop offset="1" stop-color="#000" stop-opacity="0"/>
    </radialGradient>
  </defs>
  <g id="svg2">
    <g>
      <g id="Layer_1-2" data-name="Layer_1">
        <path id="path5" class="cls-1" d="m166.59,236.16c0,3.3-2.7,6-6,6H5.99c-3.3,0-5.99-2.7-5.99-5.99V6C0,2.7,2.7,0,6,0h154.58c3.3,0,6,2.7,6,6v230.16Z"/>
      </g>
      <path d="m55.2,24l-5.4,13.7c-.72,1.81-1.43,3.62-2.15,5.44-.72,1.82-1.39,3.54-2.03,5.15s-1.21,3.05-1.71,4.32c-.5,1.27-.9,2.25-1.17,2.93-.24.59-.42,1.04-.54,1.35-.11.32-.22.55-.31.71-.09.15-.19.26-.29.3s-.26.1-.48.15c-.62.15-1.26.29-1.93.43-.67.14-1.33.26-1.98.38-.65.11-1.28.22-1.88.32-.6.1-1.15.18-1.64.24-.05.02-.13.02-.24.02-.28,0-.48-.08-.61-.24-.13-.16-.2-.37-.2-.61s.07-.53.22-.85c.16-.38.45-1.04.85-2,.41-.96.89-2.1,1.44-3.43.55-1.33,1.16-2.77,1.81-4.33.65-1.56,1.3-3.13,1.95-4.71l5.03-12.21-4.96.05c-.67,0-1.36,0-2.06.01-.71,0-1.4.01-2.06.01h-3.44c-.49,0-.86-.03-1.11-.1-.25-.06-.38-.21-.38-.44,0-.21.05-.42.15-.63.1-.21.15-.33.15-.37.31-.7.62-1.37.93-2.01.31-.64.61-1.27.92-1.89.3-.62.6-1.25.9-1.88s.61-1.3.92-2c.03-.03.05-.07.06-.11,0-.04.03-.08.06-.11.28-.31.55-.49.82-.55.27-.06.51-.09.72-.09,1.79-.02,3.37-.03,4.75-.05,1.38-.02,2.62-.03,3.72-.04,1.11,0,2.11-.02,3.01-.02.9,0,1.78-.02,2.62-.03.85,0,1.7-.01,2.55-.01h2.8c.62,0,.93.26.93.78,0,.26-.07.59-.2.98-.13.39-.32.87-.56,1.44Z"/>
      <g id="g3804">
        <g id="layer1-1">
          <path id="cl" class="cls-6" d="m118.06,168.23s11.35-9.08,11.35-21.66c0-7.37-6.54-19.6-21.66-19.6s-21.66,12.24-21.66,19.6c0,12.58,11.35,21.66,11.35,21.66-12.6-9.82-35.07-3.12-35.07,16.51,0,9.82,8.03,20.63,20.63,20.63,15.12,0,21.66-16.51,21.66-16.51,0,0,1.92,18.81-9.28,28.89h24.76c-11.2-10.07-9.28-28.89-9.28-28.89,0,0,6.54,16.51,21.66,16.51,12.61,0,20.63-10.81,20.63-20.63,0-19.62-22.47-26.32-35.07-16.51Z"/>
        </g>
        <path id="path3762" class="cls-5" d="m63.2,192.62s-1.48-18.9,4.18-24.46c6.36-6.24,25.61-2.28,25.61-2.28,0,0-13.09,4.94-18.29,9.67-4.98,4.52-11.5,17.06-11.5,17.06Z"/>
        <path id="path3762-6" class="cls-3" d="m88.7,156.19s-1.48-18.9,4.18-24.46c6.36-6.24,25.61-2.28,25.61-2.28,0,0-13.09,4.94-18.29,9.67-4.98,4.52-11.5,17.06-11.5,17.06Z"/>
        <path id="path3762-7" class="cls-4" d="m106.39,190.28s11.66-22.35,21.36-25.06c10.9-3.05,27.95,13.65,27.95,13.65,0,0-16.92-2.69-25.58-.64-8.28,1.96-23.74,12.05-23.74,12.05Z"/>
      </g>
      <g id="layer1-1-4">
        <path id="cl-9" class="cls-2" d="m43.08,82.24s4.23-3.39,4.23-8.08c0-2.75-2.44-7.31-8.08-7.31s-8.08,4.57-8.08,7.31c0,4.7,4.23,8.08,4.23,8.08-4.7-3.66-13.09-1.16-13.09,6.16,0,3.67,3,7.7,7.7,7.7,5.64,0,8.08-6.16,8.08-6.16,0,0,.72,7.02-3.46,10.78h9.24c-4.18-3.76-3.46-10.78-3.46-10.78,0,0,2.44,6.16,8.08,6.16,4.7,0,7.7-4.03,7.7-7.7,0-7.32-8.38-9.82-13.09-6.16Z"/>
        <path id="cl-9-2" data-name="cl-9" d="m43.08,82.24s4.23-3.39,4.23-8.08c0-2.75-2.44-7.31-8.08-7.31s-8.08,4.57-8.08,7.31c0,4.7,4.23,8.08,4.23,8.08-4.7-3.66-13.09-1.16-13.09,6.16,0,3.67,3,7.7,7.7,7.7,5.64,0,8.08-6.16,8.08-6.16,0,0,.72,7.02-3.46,10.78h9.24c-4.18-3.76-3.46-10.78-3.46-10.78,0,0,2.44,6.16,8.08,6.16,4.7,0,7.7-4.03,7.7-7.7,0-7.32-8.38-9.82-13.09-6.16Z"/>
      </g>
    </g>
  </g>
</svg>