<?xml version="1.0" encoding="UTF-8"?>
<svg id="Layer_2" data-name="Layer 2" xmlns="http://www.w3.org/2000/svg" xmlns:xlink="http://www.w3.org/1999/xlink" viewBox="0 0 166.59 242.17">
  <defs>
    <style>
      .cls-1 {
        fill: #fff;
      }

      .cls-2 {
        fill: #df0000;
      }

      .cls-3 {
        fill: url(#radial-gradient);
      }
    </style>
    <radialGradient id="radial-gradient" cx="-1879.16" cy="-1337.22" fx="-1879.16" fy="-1337.22" r="6.4" gradientTransform="translate(-12374.26 14937.4) rotate(179.72) scale(6.68 -11.01)" gradientUnits="userSpaceOnUse">
      <stop offset="0" stop-color="#df0000"/>
      <stop offset="1" stop-color="#df0000" stop-opacity=".64"/>
    </radialGradient>
  </defs>
  <g id="svg2">
    <g>
      <g id="Layer_1-2" data-name="Layer_1">
        <path id="path5" class="cls-1" d="m166.59,236.17c0,3.3-2.7,6-6,6H6c-3.3,0-6-2.7-6-6V6C0,2.7,2.7,0,6,0h154.59c3.3,0,6,2.7,6,6v230.17Z"/>
      </g>
      <g id="layer1-2">
        <path id="dl" class="cls-3" d="m121.48,148.15c-10.08-13.64-15.44-27.49-15.44-27.49,0,0-5.36,13.86-15.44,27.49-10.08,13.63-22.65,22.5-22.65,22.5,0,0,12.56,8.86,22.65,22.5,10.08,13.63,15.44,27.49,15.44,27.49,0,0,5.36-13.86,15.44-27.49,10.08-13.64,22.65-22.5,22.65-22.5,0,0-12.56-8.87-22.65-22.5Z"/>
      </g>
      <g id="layer1-2-6">
        <path id="dl-6" class="cls-2" d="m44.47,79.62c-3.75-5.08-5.75-10.23-5.75-10.23,0,0-2,5.16-5.75,10.23-3.75,5.07-8.43,8.37-8.43,8.37,0,0,4.68,3.3,8.43,8.38,3.75,5.07,5.75,10.23,5.75,10.23,0,0,2-5.16,5.75-10.23,3.75-5.08,8.43-8.38,8.43-8.38,0,0-4.68-3.3-8.43-8.37Z"/>
      </g>
      <path class="cls-2" d="m55.47,26.46l-5.4,13.7c-.72,1.81-1.43,3.62-2.15,5.44-.72,1.82-1.39,3.54-2.03,5.15s-1.21,3.05-1.71,4.32c-.5,1.27-.9,2.25-1.17,2.93-.24.59-.42,1.04-.54,1.35-.11.32-.22.55-.31.71-.09.15-.19.26-.29.3s-.26.1-.48.15c-.62.15-1.26.29-1.93.43-.67.14-1.33.26-1.98.38-.65.11-1.28.22-1.88.32-.6.1-1.15.18-1.64.24-.05.02-.13.02-.24.02-.28,0-.48-.08-.61-.24-.13-.16-.2-.37-.2-.61s.07-.53.22-.85c.16-.38.45-1.04.85-2,.41-.96.89-2.1,1.44-3.43.55-1.33,1.16-2.77,1.81-4.33.65-1.56,1.3-3.13,1.95-4.71l5.03-12.21-4.96.05c-.67,0-1.36,0-2.06.01-.71,0-1.4.01-2.06.01h-3.44c-.49,0-.86-.03-1.11-.1-.25-.06-.38-.21-.38-.44,0-.21.05-.42.15-.63.1-.21.15-.33.15-.37.31-.7.62-1.37.93-2.01.31-.64.61-1.27.92-1.89.3-.62.6-1.25.9-1.88s.61-1.3.92-2c.03-.03.05-.07.06-.11,0-.04.03-.08.06-.11.28-.31.55-.49.82-.55.27-.06.51-.09.72-.09,1.79-.02,3.37-.03,4.75-.05,1.38-.02,2.62-.03,3.72-.04,1.11,0,2.11-.02,3.01-.02.9,0,1.78-.02,2.62-.03.85,0,1.7-.01,2.55-.01h2.8c.62,0,.93.26.93.78,0,.26-.07.59-.2.98-.13.39-.32.87-.56,1.44Z"/>
    </g>
  </g>
</svg>