<?xml version="1.0" encoding="UTF-8"?>
<svg id="Layer_2" data-name="Layer 2" xmlns="http://www.w3.org/2000/svg" xmlns:xlink="http://www.w3.org/1999/xlink" viewBox="0 0 166.59 242.17">
  <defs>
    <style>
      .cls-1 {
        fill: #fff;
      }

      .cls-2 {
        fill: #df0000;
      }

      .cls-3 {
        fill: url(#radial-gradient-3);
      }

      .cls-4 {
        fill: url(#radial-gradient-2);
      }

      .cls-5 {
        fill: url(#radial-gradient);
      }
    </style>
    <radialGradient id="radial-gradient" cx="-1151.2" cy="-1339.7" fx="-1151.2" fy="-1339.7" r="6.4" gradientTransform="translate(-7751.86 14871.28) rotate(-180) scale(6.83 -10.99)" gradientUnits="userSpaceOnUse">
      <stop offset="0" stop-color="#df0000"/>
      <stop offset="1" stop-color="#df0000" stop-opacity=".67"/>
    </radialGradient>
    <radialGradient id="radial-gradient-2" cx="-1532.21" cy="-13074.27" fx="-1532.21" fy="-13074.27" r="65.52" gradientTransform="translate(-916.43 -2843.15) rotate(-31.19) scale(.39 -.23) skewX(1.04)" gradientUnits="userSpaceOnUse">
      <stop offset="0" stop-color="#fff" stop-opacity=".31"/>
      <stop offset="1" stop-color="#000" stop-opacity="0"/>
    </radialGradient>
    <radialGradient id="radial-gradient-3" cx="236.58" cy="-14045.24" fx="236.58" fy="-14045.24" r="65.52" gradientTransform="translate(-778.4 -2792.08) rotate(-23.03) scale(.32 -.22) skewX(5.07)" gradientUnits="userSpaceOnUse">
      <stop offset="0" stop-color="#fff" stop-opacity=".29"/>
      <stop offset="1" stop-color="#000" stop-opacity="0"/>
    </radialGradient>
  </defs>
  <g id="svg2">
    <g>
      <g id="Layer_1-2" data-name="Layer_1">
        <path id="path5" class="cls-1" d="m166.59,236.17c0,3.3-2.7,5.99-5.99,5.99H5.99c-3.29,0-5.99-2.69-5.99-5.99V6C0,2.7,2.7,0,6,0h154.6c3.3,0,6,2.7,6,6v230.18Z"/>
      </g>
      <path class="cls-2" d="m54.73,24.47l-5.4,13.7c-.72,1.81-1.43,3.62-2.15,5.44-.72,1.82-1.39,3.54-2.03,5.15s-1.21,3.05-1.71,4.32c-.5,1.27-.9,2.25-1.17,2.93-.24.59-.42,1.04-.54,1.35-.11.32-.22.55-.31.71-.09.15-.19.26-.29.3s-.26.1-.48.15c-.62.15-1.26.29-1.93.43-.67.14-1.33.26-1.98.38-.65.11-1.28.22-1.88.32-.6.1-1.15.18-1.64.24-.05.02-.13.02-.24.02-.28,0-.48-.08-.61-.24-.13-.16-.2-.37-.2-.61s.07-.53.22-.85c.16-.38.45-1.04.85-2,.41-.96.89-2.1,1.44-3.43.55-1.33,1.16-2.77,1.81-4.33.65-1.56,1.3-3.13,1.95-4.71l5.03-12.21-4.96.05c-.67,0-1.36,0-2.06.01-.71,0-1.4.01-2.06.01h-3.44c-.49,0-.86-.03-1.11-.1-.25-.06-.38-.21-.38-.44,0-.21.05-.42.15-.63.1-.21.15-.33.15-.37.31-.7.62-1.37.93-2.01.31-.64.61-1.27.92-1.89.3-.62.6-1.25.9-1.88s.61-1.3.92-2c.03-.03.05-.07.06-.11,0-.04.03-.08.06-.11.28-.31.55-.49.82-.55.27-.06.51-.09.72-.09,1.79-.02,3.37-.03,4.75-.05,1.38-.02,2.62-.03,3.72-.04,1.11,0,2.11-.02,3.01-.02.9,0,1.78-.02,2.62-.03.85,0,1.7-.01,2.55-.01h2.8c.62,0,.93.26.93.78,0,.26-.07.59-.2.98-.13.39-.32.87-.56,1.44Z"/>
      <g id="g3036">
        <g id="layer1-9">
          <path id="hl" class="cls-5" d="m126.97,130.03c-17.71,0-20.07,17.77-20.07,17.77,0,0-2.36-17.77-20.07-17.77-12.4,0-23.61,7.97-23.61,23,0,19.86,35.93,39.83,43.68,68.99,7.38-29.14,43.68-49.13,43.68-68.99,0-15.03-11.22-23-23.61-23Z"/>
        </g>
        <path id="path3762-6-4" class="cls-4" d="m64.33,167.02s-1.89-22.99,5.34-29.74c8.13-7.59,32.73-2.77,32.73-2.77,0,0-16.72,6.01-23.38,11.76-6.36,5.49-14.69,20.75-14.69,20.75Z"/>
        <path id="path3762-6-2-3" class="cls-3" d="m106.2,160.17s3.46-21.39,10.52-25.9c7.94-5.08,26.02,4.93,26.02,4.93,0,0-13.38,4.83-19.78,8.55-6.12,3.56-16.76,12.43-16.76,12.43Z"/>
      </g>
      <g id="layer1-9-6">
        <path id="hl-8" class="cls-2" d="m46.32,68.22c-6.52,0-7.39,6.54-7.39,6.54,0,0-.87-6.54-7.39-6.54-4.56,0-8.69,2.93-8.69,8.46,0,7.31,13.22,14.66,16.07,25.39,2.72-10.72,16.07-18.08,16.07-25.39,0-5.53-4.13-8.46-8.69-8.46Z"/>
      </g>
    </g>
  </g>
</svg>