<?xml version="1.0" encoding="UTF-8"?>
<svg id="Layer_2" data-name="Layer 2" xmlns="http://www.w3.org/2000/svg" xmlns:xlink="http://www.w3.org/1999/xlink" viewBox="0 0 166.59 242.17">
  <defs>
    <style>
      .cls-1 {
        fill: #fff;
      }

      .cls-2 {
        fill: url(#radial-gradient);
      }
    </style>
    <radialGradient id="radial-gradient" cx="-1341.87" cy="-1386.93" fx="-1341.87" fy="-1386.93" r="6.4" gradientTransform="translate(-13569.72 19784.09) rotate(-179.22) scale(9.99 -14.29)" gradientUnits="userSpaceOnUse">
      <stop offset="0" stop-color="#000"/>
      <stop offset="1" stop-color="#000" stop-opacity=".65"/>
    </radialGradient>
  </defs>
  <g id="svg2">
    <g>
      <g id="Layer_1-2" data-name="Layer_1">
        <path id="path5" class="cls-1" d="m166.59,236.17c0,3.3-2.7,5.99-5.99,5.99H5.99c-3.29,0-5.99-2.69-5.99-5.99V6C0,2.7,2.7,0,6,0h154.6c3.3,0,6,2.7,6,6v230.18Z"/>
      </g>
      <path d="m54.73,24.47l-5.4,13.7c-.72,1.81-1.43,3.62-2.15,5.44-.72,1.82-1.39,3.54-2.03,5.15s-1.2,3.05-1.71,4.32-.9,2.25-1.17,2.93c-.24.59-.42,1.04-.54,1.35-.11.32-.22.55-.3.71-.09.15-.19.26-.29.3-.11.05-.26.1-.48.15-.62.15-1.26.29-1.93.43-.67.14-1.33.26-1.98.38-.65.11-1.28.22-1.88.32s-1.15.18-1.64.24c-.05.02-.13.02-.24.02-.28,0-.48-.08-.61-.24-.13-.16-.2-.37-.2-.61s.07-.53.22-.85c.16-.38.45-1.04.85-2s.89-2.1,1.44-3.43c.55-1.33,1.16-2.77,1.81-4.33s1.3-3.13,1.95-4.71l5.03-12.21-4.96.05c-.67,0-1.35,0-2.06.01-.71,0-1.4.01-2.06.01h-3.44c-.49,0-.86-.03-1.11-.1-.25-.06-.38-.21-.38-.44,0-.21.05-.42.15-.63.1-.21.15-.33.15-.37.31-.7.62-1.37.93-2.01.31-.64.61-1.27.92-1.89.3-.62.6-1.25.9-1.88.3-.63.61-1.3.92-2,.03-.03.05-.07.06-.11,0-.04.03-.08.06-.11.28-.31.55-.49.82-.55.27-.06.51-.09.72-.09,1.79-.02,3.37-.03,4.75-.05,1.38-.02,2.62-.03,3.72-.04,1.11,0,2.11-.02,3.02-.02.9,0,1.78-.02,2.62-.03.85,0,1.7-.01,2.55-.01h2.79c.62,0,.93.26.93.78,0,.26-.07.59-.2.98s-.32.87-.56,1.44Z"/>
      <g id="g3886">
        <g id="layer1-7-1">
          <path id="sl-5" class="cls-2" d="m147.97,188.11c-1.22-18.72-39.09-53.94-40.31-62.75-1.22,8.81-39.09,44.03-40.31,62.75-.85,13.23,8.55,18.72,17.1,18.72,9.26-.1,16.91-12.92,19.54-15.41,1.22,3.3-8.09,30.82-10.99,30.82h29.32c-2.91,0-12.21-27.52-10.99-30.82,2.31,2.29,9.07,15.03,19.55,15.41,8.55,0,17.95-5.48,17.09-18.72Z"/>
        </g>
      </g>
      <g id="layer1-7">
        <path id="sl" d="m53.14,88.96c-.44-6.72-14.02-19.35-14.46-22.52-.44,3.16-14.02,15.8-14.46,22.52-.31,4.75,3.07,6.72,6.14,6.72,3.32-.04,6.07-4.64,7.01-5.53.44,1.19-2.9,11.06-3.94,11.06h10.52c-1.04,0-4.38-9.87-3.94-11.06.83.82,3.25,5.39,7.01,5.53,3.07,0,6.44-1.97,6.13-6.72Z"/>
      </g>
    </g>
  </g>
</svg>