<?xml version="1.0" encoding="UTF-8"?>
<svg id="Layer_2" data-name="Layer 2" xmlns="http://www.w3.org/2000/svg" xmlns:xlink="http://www.w3.org/1999/xlink" viewBox="0 0 166.59 242.17">
  <defs>
    <style>
      .cls-1 {
        fill: #fff;
      }

      .cls-2 {
        fill: #fffeff;
      }

      .cls-3 {
        fill: url(#radial-gradient-3);
      }

      .cls-4 {
        fill: url(#radial-gradient-4);
      }

      .cls-5 {
        fill: url(#radial-gradient-2);
      }

      .cls-6 {
        fill: url(#radial-gradient);
      }
    </style>
    <radialGradient id="radial-gradient" cx="-1525.54" cy="-1141.29" fx="-1525.54" fy="-1141.29" r="7.6" gradientTransform="translate(-13926.14 15927.79) rotate(179.33) scale(9.32 -13.68)" gradientUnits="userSpaceOnUse">
      <stop offset="0" stop-color="#000"/>
      <stop offset="1" stop-color="#000" stop-opacity=".66"/>
    </radialGradient>
    <radialGradient id="radial-gradient-2" cx="-326.79" cy="-15204.49" fx="-326.79" fy="-15204.49" r="65.52" gradientTransform="translate(-1214.3 -2438.75) rotate(-32.46) scale(.31 -.19) skewX(2.58)" gradientUnits="userSpaceOnUse">
      <stop offset="0" stop-color="#fff" stop-opacity=".53"/>
      <stop offset="1" stop-color="#000" stop-opacity="0"/>
    </radialGradient>
    <radialGradient id="radial-gradient-3" cx="-358.64" cy="-15226.9" fx="-358.64" fy="-15226.9" r="65.52" gradientTransform="translate(-1182.43 -2484.29) rotate(-32.46) scale(.31 -.19) skewX(2.58)" gradientUnits="userSpaceOnUse">
      <stop offset="0" stop-color="#fff" stop-opacity=".52"/>
      <stop offset="1" stop-color="#000" stop-opacity="0"/>
    </radialGradient>
    <radialGradient id="radial-gradient-4" cx="3020.2" cy="-10624.05" fx="3020.2" fy="-10624.05" r="65.52" gradientTransform="translate(-780.96 -2399.58) rotate(-3.38) scale(.39 -.25) skewX(5.7)" gradientUnits="userSpaceOnUse">
      <stop offset="0" stop-color="#fff" stop-opacity=".7"/>
      <stop offset="1" stop-color="#000" stop-opacity="0"/>
    </radialGradient>
  </defs>
  <g id="svg2">
    <g>
      <g id="Layer_1-2" data-name="Layer_1">
        <path id="path5" class="cls-1" d="m166.59,236.16c0,3.3-2.7,6-6,6H5.99c-3.3,0-5.99-2.7-5.99-5.99V6C0,2.7,2.7,0,6,0h154.58c3.3,0,6,2.7,6,6v230.16Z"/>
      </g>
      <path d="m36.74,57.57c-.99,0-1.99-.09-2.99-.26-1-.17-1.97-.44-2.89-.79s-1.8-.81-2.61-1.37c-.81-.55-1.52-1.21-2.12-1.98-.6-.76-1.07-1.64-1.42-2.61s-.51-2.08-.51-3.3.15-2.23.45-3.16c.3-.94.71-1.81,1.23-2.61.52-.81,1.13-1.57,1.82-2.29.69-.72,1.42-1.45,2.18-2.19-1.22-.85-2.11-1.84-2.66-2.99-.55-1.15-.83-2.44-.83-3.87,0-1.2.18-2.29.55-3.27s.87-1.85,1.53-2.61c.65-.76,1.42-1.42,2.31-1.98.89-.55,1.85-1.01,2.88-1.38,1.03-.37,2.12-.64,3.26-.82,1.14-.18,2.29-.27,3.47-.27s2.39.2,3.6.6c1.21.4,2.3.98,3.27,1.75.97.77,1.76,1.7,2.37,2.81.61,1.11.92,2.37.92,3.78,0,.8-.1,1.55-.3,2.26-.2.71-.47,1.38-.79,2-.33.63-.7,1.21-1.12,1.73-.42.53-.85,1.02-1.29,1.48.68.49,1.33,1.03,1.94,1.64.61.6,1.14,1.29,1.59,2.06.45.77.8,1.65,1.06,2.62s.39,2.08.39,3.32c0,1.3-.22,2.49-.66,3.58-.44,1.08-1.03,2.05-1.78,2.92-.75.86-1.63,1.62-2.64,2.27-1.01.65-2.08,1.19-3.2,1.62-1.12.43-2.28.76-3.48.98-1.2.22-2.36.33-3.5.33Zm-1.56-10.94c0,.6.04,1.27.12,2s.25,1.42.5,2.06c.25.64.61,1.18,1.06,1.61.46.43,1.06.65,1.81.65.44,0,.82-.13,1.14-.4.32-.27.59-.61.82-1.04.23-.42.42-.9.56-1.43.15-.53.26-1.05.34-1.58.08-.52.14-1.01.17-1.46.03-.46.05-.82.05-1.1,0-.55-.07-1.17-.2-1.86s-.33-1.33-.61-1.93c-.28-.6-.63-1.11-1.07-1.51-.44-.41-.96-.61-1.56-.61-.47,0-.88.11-1.21.34-.33.23-.62.53-.84.89-.23.37-.41.79-.55,1.26-.14.47-.25.95-.33,1.44s-.13.96-.16,1.43c-.02.46-.04.88-.04,1.23Zm.37-17.04c0,.47.06.99.18,1.54.12.55.32,1.07.59,1.55.27.48.61.88,1.03,1.2.42.32.92.48,1.53.48s1.05-.2,1.39-.6c.34-.4.59-.88.76-1.44.16-.56.26-1.14.31-1.75.04-.6.06-1.1.06-1.49,0-.46-.05-.93-.15-1.43-.1-.5-.26-.95-.48-1.37-.22-.41-.52-.76-.89-1.04-.37-.28-.84-.42-1.39-.42s-1.05.16-1.43.48c-.38.32-.68.72-.9,1.2-.22.48-.38,1-.46,1.55-.09.55-.13,1.07-.13,1.54Z"/>
      <g id="g3804">
        <g id="layer1-1">
          <path id="cl" class="cls-6" d="m118.06,168.23s11.35-9.08,11.35-21.66c0-7.37-6.54-19.6-21.66-19.6s-21.66,12.24-21.66,19.6c0,12.58,11.35,21.66,11.35,21.66-12.6-9.82-35.07-3.12-35.07,16.51,0,9.82,8.03,20.63,20.63,20.63,15.12,0,21.66-16.51,21.66-16.51,0,0,1.92,18.81-9.28,28.89h24.76c-11.2-10.07-9.28-28.89-9.28-28.89,0,0,6.54,16.51,21.66,16.51,12.61,0,20.63-10.81,20.63-20.63,0-19.62-22.47-26.32-35.07-16.51Z"/>
        </g>
        <path id="path3762" class="cls-5" d="m63.2,192.62s-1.48-18.9,4.18-24.46c6.36-6.24,25.61-2.28,25.61-2.28,0,0-13.09,4.94-18.29,9.67-4.98,4.52-11.5,17.06-11.5,17.06Z"/>
        <path id="path3762-6" class="cls-3" d="m88.7,156.19s-1.48-18.9,4.18-24.46c6.36-6.24,25.61-2.28,25.61-2.28,0,0-13.09,4.94-18.29,9.67-4.98,4.52-11.5,17.06-11.5,17.06Z"/>
        <path id="path3762-7" class="cls-4" d="m106.39,190.28s11.66-22.35,21.36-25.06c10.9-3.05,27.95,13.65,27.95,13.65,0,0-16.92-2.69-25.58-.64-8.28,1.96-23.74,12.05-23.74,12.05Z"/>
      </g>
      <g id="layer1-1-4">
        <path id="cl-9" class="cls-2" d="m43.08,82.24s4.23-3.39,4.23-8.08c0-2.75-2.44-7.31-8.08-7.31s-8.08,4.57-8.08,7.31c0,4.7,4.23,8.08,4.23,8.08-4.7-3.66-13.09-1.16-13.09,6.16,0,3.67,3,7.7,7.7,7.7,5.64,0,8.08-6.16,8.08-6.16,0,0,.72,7.02-3.46,10.78h9.24c-4.18-3.76-3.46-10.78-3.46-10.78,0,0,2.44,6.16,8.08,6.16,4.7,0,7.7-4.03,7.7-7.7,0-7.32-8.38-9.82-13.09-6.16Z"/>
        <path id="cl-9-2" data-name="cl-9" d="m43.08,82.24s4.23-3.39,4.23-8.08c0-2.75-2.44-7.31-8.08-7.31s-8.08,4.57-8.08,7.31c0,4.7,4.23,8.08,4.23,8.08-4.7-3.66-13.09-1.16-13.09,6.16,0,3.67,3,7.7,7.7,7.7,5.64,0,8.08-6.16,8.08-6.16,0,0,.72,7.02-3.46,10.78h9.24c-4.18-3.76-3.46-10.78-3.46-10.78,0,0,2.44,6.16,8.08,6.16,4.7,0,7.7-4.03,7.7-7.7,0-7.32-8.38-9.82-13.09-6.16Z"/>
      </g>
    </g>
  </g>
</svg>