<?xml version="1.0" encoding="UTF-8"?>
<svg id="Layer_2" data-name="Layer 2" xmlns="http://www.w3.org/2000/svg" xmlns:xlink="http://www.w3.org/1999/xlink" viewBox="0 0 166.59 242.17">
  <defs>
    <style>
      .cls-1 {
        fill: #fff;
      }

      .cls-2 {
        fill: #df0000;
      }

      .cls-3 {
        fill: url(#radial-gradient);
      }
    </style>
    <radialGradient id="radial-gradient" cx="-1876.65" cy="-1080.65" fx="-1876.65" fy="-1080.65" r="6.4" gradientTransform="translate(-12371.38 12112.06) rotate(179.72) scale(6.68 -11.01)" gradientUnits="userSpaceOnUse">
      <stop offset="0" stop-color="#df0000"/>
      <stop offset="1" stop-color="#df0000" stop-opacity=".64"/>
    </radialGradient>
  </defs>
  <g id="svg2">
    <g>
      <g id="Layer_1-2" data-name="Layer_1">
        <path id="path5" class="cls-1" d="m166.59,236.17c0,3.3-2.7,6-6,6H6c-3.3,0-6-2.7-6-6V6C0,2.7,2.7,0,6,0h154.59c3.3,0,6,2.7,6,6v230.17Z"/>
      </g>
      <g id="layer1-2">
        <path id="dl" class="cls-3" d="m121.48,148.15c-10.08-13.64-15.44-27.49-15.44-27.49,0,0-5.36,13.86-15.44,27.49-10.08,13.63-22.65,22.5-22.65,22.5,0,0,12.56,8.86,22.65,22.5,10.08,13.63,15.44,27.49,15.44,27.49,0,0,5.36-13.86,15.44-27.49,10.08-13.64,22.65-22.5,22.65-22.5,0,0-12.56-8.87-22.65-22.5Z"/>
      </g>
      <g id="layer1-2-6">
        <path id="dl-6" class="cls-2" d="m44.47,77.62c-3.75-5.08-5.75-10.23-5.75-10.23,0,0-2,5.16-5.75,10.23-3.75,5.07-8.43,8.37-8.43,8.37,0,0,4.68,3.3,8.43,8.38,3.75,5.07,5.75,10.23,5.75,10.23,0,0,2-5.16,5.75-10.23,3.75-5.08,8.43-8.38,8.43-8.38,0,0-4.68-3.3-8.43-8.37Z"/>
      </g>
      <path class="cls-2" d="m37.01,60.03c-.99,0-1.99-.09-2.99-.26-1-.17-1.97-.44-2.89-.79s-1.8-.81-2.61-1.37c-.81-.55-1.52-1.21-2.12-1.98-.6-.76-1.07-1.64-1.42-2.61s-.51-2.08-.51-3.3.15-2.23.45-3.16c.3-.94.71-1.81,1.23-2.61.52-.81,1.13-1.57,1.82-2.29.69-.72,1.42-1.45,2.18-2.19-1.22-.85-2.11-1.84-2.66-2.99-.55-1.15-.83-2.44-.83-3.87,0-1.2.18-2.29.55-3.27s.87-1.85,1.53-2.61c.65-.76,1.42-1.42,2.31-1.98.89-.55,1.85-1.01,2.88-1.38,1.03-.37,2.12-.64,3.26-.82,1.14-.18,2.29-.27,3.47-.27s2.39.2,3.6.6c1.21.4,2.3.98,3.27,1.75.97.77,1.76,1.7,2.37,2.81.61,1.11.92,2.37.92,3.78,0,.8-.1,1.55-.3,2.26-.2.71-.47,1.38-.79,2-.33.63-.7,1.21-1.12,1.73-.42.53-.85,1.02-1.29,1.48.68.49,1.33,1.03,1.94,1.64.61.6,1.14,1.29,1.59,2.06.45.77.8,1.65,1.06,2.62s.39,2.08.39,3.32c0,1.3-.22,2.49-.66,3.58-.44,1.08-1.03,2.05-1.78,2.92-.75.86-1.63,1.62-2.64,2.27-1.01.65-2.08,1.19-3.2,1.62-1.12.43-2.28.76-3.48.98-1.2.22-2.36.33-3.5.33Zm-1.56-10.94c0,.6.04,1.27.12,2s.25,1.42.5,2.06c.25.64.61,1.18,1.06,1.61.46.43,1.06.65,1.81.65.44,0,.82-.13,1.14-.4.32-.27.59-.61.82-1.04.23-.42.42-.9.56-1.43.15-.53.26-1.05.34-1.58.08-.52.14-1.01.17-1.46.03-.46.05-.82.05-1.1,0-.55-.07-1.17-.2-1.86s-.33-1.33-.61-1.93c-.28-.6-.63-1.11-1.07-1.51-.44-.41-.96-.61-1.56-.61-.47,0-.88.11-1.21.34-.33.23-.62.53-.84.89-.23.37-.41.79-.55,1.26-.14.47-.25.95-.33,1.44s-.13.96-.16,1.43c-.02.46-.04.88-.04,1.23Zm.37-17.04c0,.47.06.99.18,1.54.12.55.32,1.07.59,1.55.27.48.61.88,1.03,1.2.42.32.92.48,1.53.48s1.05-.2,1.39-.6c.34-.4.59-.88.76-1.44.16-.56.26-1.14.31-1.75.04-.6.06-1.1.06-1.49,0-.46-.05-.93-.15-1.43-.1-.5-.26-.95-.48-1.37-.22-.41-.52-.76-.89-1.04-.37-.28-.84-.42-1.39-.42s-1.05.16-1.43.48c-.38.32-.68.72-.9,1.2-.22.48-.38,1-.46,1.55-.09.55-.13,1.07-.13,1.54Z"/>
    </g>
  </g>
</svg>