<?xml version="1.0" encoding="UTF-8"?>
<svg id="Layer_2" data-name="Layer 2" xmlns="http://www.w3.org/2000/svg" xmlns:xlink="http://www.w3.org/1999/xlink" viewBox="0 0 166.59 242.17">
  <defs>
    <style>
      .cls-1 {
        fill: #fff;
      }

      .cls-2 {
        fill: #df0000;
      }

      .cls-3 {
        fill: url(#radial-gradient-3);
      }

      .cls-4 {
        fill: url(#radial-gradient-2);
      }

      .cls-5 {
        fill: url(#radial-gradient);
      }
    </style>
    <radialGradient id="radial-gradient" cx="-1148.49" cy="-1083.19" fx="-1148.49" fy="-1083.19" r="6.4" gradientTransform="translate(-7733.37 12052.56) rotate(-180) scale(6.83 -10.99)" gradientUnits="userSpaceOnUse">
      <stop offset="0" stop-color="#df0000"/>
      <stop offset="1" stop-color="#df0000" stop-opacity=".67"/>
    </radialGradient>
    <radialGradient id="radial-gradient-2" cx="-1182.72" cy="-11757.88" fx="-1182.72" fy="-11757.88" r="65.52" gradientTransform="translate(-882.31 -2502.8) rotate(-31.19) scale(.39 -.23) skewX(1.04)" gradientUnits="userSpaceOnUse">
      <stop offset="0" stop-color="#fff" stop-opacity=".31"/>
      <stop offset="1" stop-color="#000" stop-opacity="0"/>
    </radialGradient>
    <radialGradient id="radial-gradient-3" cx="471.43" cy="-12562" fx="471.43" fy="-12562" r="65.52" gradientTransform="translate(-760.13 -2450.12) rotate(-23.03) scale(.32 -.22) skewX(5.07)" gradientUnits="userSpaceOnUse">
      <stop offset="0" stop-color="#fff" stop-opacity=".29"/>
      <stop offset="1" stop-color="#000" stop-opacity="0"/>
    </radialGradient>
  </defs>
  <g id="svg2">
    <g>
      <g id="Layer_1-2" data-name="Layer_1">
        <path id="path5" class="cls-1" d="m166.59,236.17c0,3.3-2.7,5.99-5.99,5.99H5.99c-3.29,0-5.99-2.69-5.99-5.99V6C0,2.7,2.7,0,6,0h154.6c3.3,0,6,2.7,6,6v230.18Z"/>
      </g>
      <path class="cls-2" d="m36.28,58.04c-.99,0-1.99-.09-2.99-.26-1-.17-1.97-.44-2.89-.79s-1.8-.81-2.61-1.37c-.81-.55-1.52-1.21-2.12-1.98-.6-.76-1.07-1.64-1.42-2.61s-.51-2.08-.51-3.3.15-2.23.45-3.16c.3-.94.71-1.81,1.23-2.61.52-.81,1.13-1.57,1.82-2.29.69-.72,1.42-1.45,2.18-2.19-1.22-.85-2.11-1.84-2.66-2.99-.55-1.15-.83-2.44-.83-3.87,0-1.2.18-2.29.55-3.27s.87-1.85,1.53-2.61c.65-.76,1.42-1.42,2.31-1.98.89-.55,1.85-1.01,2.88-1.38,1.03-.37,2.12-.64,3.26-.82,1.14-.18,2.29-.27,3.47-.27s2.39.2,3.6.6c1.21.4,2.3.98,3.27,1.75.97.77,1.76,1.7,2.37,2.81.61,1.11.92,2.37.92,3.78,0,.8-.1,1.55-.3,2.26-.2.71-.47,1.38-.79,2-.33.63-.7,1.21-1.12,1.73-.42.53-.85,1.02-1.29,1.48.68.49,1.33,1.03,1.94,1.64.61.6,1.14,1.29,1.59,2.06.45.77.8,1.65,1.06,2.62s.39,2.08.39,3.32c0,1.3-.22,2.49-.66,3.58-.44,1.08-1.03,2.05-1.78,2.92-.75.86-1.63,1.62-2.64,2.27-1.01.65-2.08,1.19-3.2,1.62-1.12.43-2.28.76-3.48.98-1.2.22-2.36.33-3.5.33Zm-1.56-10.94c0,.6.04,1.27.12,2s.25,1.42.5,2.06c.25.64.61,1.18,1.06,1.61.46.43,1.06.65,1.81.65.44,0,.82-.13,1.14-.4.32-.27.59-.61.82-1.04.23-.42.42-.9.56-1.43.15-.53.26-1.05.34-1.58.08-.52.14-1.01.17-1.46.03-.46.05-.82.05-1.1,0-.55-.07-1.17-.2-1.86s-.33-1.33-.61-1.93c-.28-.6-.63-1.11-1.07-1.51-.44-.41-.96-.61-1.56-.61-.47,0-.88.11-1.21.34-.33.23-.62.53-.84.89-.23.37-.41.79-.55,1.26-.14.47-.25.95-.33,1.44s-.13.96-.16,1.43c-.02.46-.04.88-.04,1.23Zm.37-17.04c0,.47.06.99.18,1.54.12.55.32,1.07.59,1.55.27.48.61.88,1.03,1.2.42.32.92.48,1.53.48s1.05-.2,1.39-.6c.34-.4.59-.88.76-1.44.16-.56.26-1.14.31-1.75.04-.6.06-1.1.06-1.49,0-.46-.05-.93-.15-1.43-.1-.5-.26-.95-.48-1.37-.22-.41-.52-.76-.89-1.04-.37-.28-.84-.42-1.39-.42s-1.05.16-1.43.48c-.38.32-.68.72-.9,1.2-.22.48-.38,1-.46,1.55-.09.55-.13,1.07-.13,1.54Z"/>
      <g id="g3036">
        <g id="layer1-9">
          <path id="hl" class="cls-5" d="m126.97,130.03c-17.71,0-20.07,17.77-20.07,17.77,0,0-2.36-17.77-20.07-17.77-12.4,0-23.61,7.97-23.61,23,0,19.86,35.93,39.83,43.68,68.99,7.38-29.14,43.68-49.13,43.68-68.99,0-15.03-11.22-23-23.61-23Z"/>
        </g>
        <path id="path3762-6-4" class="cls-4" d="m64.33,167.02s-1.89-22.99,5.34-29.74c8.13-7.59,32.73-2.77,32.73-2.77,0,0-16.72,6.01-23.38,11.76-6.36,5.49-14.69,20.75-14.69,20.75Z"/>
        <path id="path3762-6-2-3" class="cls-3" d="m106.2,160.17s3.46-21.39,10.52-25.9c7.94-5.08,26.02,4.93,26.02,4.93,0,0-13.38,4.83-19.78,8.55-6.12,3.56-16.76,12.43-16.76,12.43Z"/>
      </g>
      <g id="layer1-9-6">
        <path id="hl-8" class="cls-2" d="m46.32,68.22c-6.52,0-7.39,6.54-7.39,6.54,0,0-.87-6.54-7.39-6.54-4.56,0-8.69,2.93-8.69,8.46,0,7.31,13.22,14.66,16.07,25.39,2.72-10.72,16.07-18.08,16.07-25.39,0-5.53-4.13-8.46-8.69-8.46Z"/>
      </g>
    </g>
  </g>
</svg>