<?xml version="1.0" encoding="UTF-8"?>
<svg id="Layer_2" data-name="Layer 2" xmlns="http://www.w3.org/2000/svg" xmlns:xlink="http://www.w3.org/1999/xlink" viewBox="0 0 166.59 242.17">
  <defs>
    <style>
      .cls-1 {
        fill: #fff;
      }

      .cls-2 {
        fill: #fffeff;
      }

      .cls-3 {
        fill: url(#radial-gradient-3);
      }

      .cls-4 {
        fill: url(#radial-gradient-4);
      }

      .cls-5 {
        fill: url(#radial-gradient-2);
      }

      .cls-6 {
        fill: url(#radial-gradient);
      }
    </style>
    <radialGradient id="radial-gradient" cx="-1512.01" cy="-864.75" fx="-1512.01" fy="-864.75" r="7.6" gradientTransform="translate(-13844.37 12142.72) rotate(179.33) scale(9.32 -13.68)" gradientUnits="userSpaceOnUse">
      <stop offset="0" stop-color="#000"/>
      <stop offset="1" stop-color="#000" stop-opacity=".66"/>
    </radialGradient>
    <radialGradient id="radial-gradient-2" cx="103.28" cy="-13547.76" fx="103.28" fy="-13547.76" r="65.52" gradientTransform="translate(-1178.12 -2088.13) rotate(-32.46) scale(.31 -.19) skewX(2.58)" gradientUnits="userSpaceOnUse">
      <stop offset="0" stop-color="#fff" stop-opacity=".53"/>
      <stop offset="1" stop-color="#000" stop-opacity="0"/>
    </radialGradient>
    <radialGradient id="radial-gradient-3" cx="71.43" cy="-13570.16" fx="71.43" fy="-13570.16" r="65.52" gradientTransform="translate(-1146.25 -2133.67) rotate(-32.46) scale(.31 -.19) skewX(2.58)" gradientUnits="userSpaceOnUse">
      <stop offset="0" stop-color="#fff" stop-opacity=".52"/>
      <stop offset="1" stop-color="#000" stop-opacity="0"/>
    </radialGradient>
    <radialGradient id="radial-gradient-4" cx="2924.49" cy="-9111.04" fx="2924.49" fy="-9111.04" r="65.52" gradientTransform="translate(-780.53 -2027.03) rotate(-3.38) scale(.39 -.25) skewX(5.7)" gradientUnits="userSpaceOnUse">
      <stop offset="0" stop-color="#fff" stop-opacity=".7"/>
      <stop offset="1" stop-color="#000" stop-opacity="0"/>
    </radialGradient>
  </defs>
  <g id="svg2">
    <g>
      <g id="Layer_1-2" data-name="Layer_1">
        <path id="path5" class="cls-1" d="m166.59,236.16c0,3.3-2.7,6-6,6H5.99c-3.3,0-5.99-2.7-5.99-5.99V6C0,2.7,2.7,0,6,0h154.58c3.3,0,6,2.7,6,6v230.16Z"/>
      </g>
      <path d="m36.48,56.79c-.44-.11-.66-.3-.66-.56,0-.18.08-.37.24-.59.49-.68.95-1.42,1.39-2.22.44-.8.84-1.62,1.21-2.47.37-.85.7-1.68,1-2.51.3-.83.56-1.61.77-2.34-.83.24-1.68.44-2.56.59s-1.74.22-2.59.22c-1.58,0-3.05-.33-4.41-.99-1.36-.66-2.54-1.54-3.54-2.64-1-1.1-1.79-2.37-2.36-3.81-.57-1.44-.85-2.93-.85-4.48s.23-3.02.7-4.38c.46-1.36,1.11-2.6,1.93-3.71.82-1.12,1.79-2.11,2.91-2.99,1.11-.88,2.31-1.62,3.6-2.21,1.29-.59,2.63-1.05,4.03-1.37,1.4-.32,2.81-.48,4.22-.48,1.9,0,3.63.43,5.16,1.28,1.54.85,2.85,1.96,3.94,3.33s1.93,2.91,2.53,4.61c.59,1.71.89,3.42.89,5.13,0,1.61-.19,3.17-.56,4.69s-.88,2.99-1.51,4.43c-.63,1.44-1.37,2.84-2.2,4.19-.83,1.35-1.71,2.66-2.64,3.93s-1.87,2.49-2.82,3.67c-.95,1.18-1.87,2.32-2.75,3.43-.05.05-.11.1-.18.15s-.17.07-.28.07-.23-.03-.34-.1c-.42-.23-.81-.43-1.15-.61-.34-.18-.68-.34-1-.49s-.66-.29-1-.42c-.34-.13-.72-.25-1.12-.37Zm-1.66-23.58c0,.85.1,1.66.29,2.45.2.79.5,1.49.92,2.09.42.6.96,1.09,1.62,1.45.67.37,1.47.55,2.42.55.36,0,.67-.03.93-.09.26-.06.6-.16,1.03-.3.18-.73.33-1.36.44-1.88.11-.52.2-1.01.26-1.46.06-.46.1-.92.12-1.38.02-.46.04-1,.04-1.6,0-.36-.01-.78-.04-1.26-.02-.48-.08-.97-.16-1.48-.08-.5-.2-1-.34-1.49s-.35-.92-.6-1.29c-.25-.37-.56-.68-.93-.92-.37-.24-.81-.35-1.33-.35-.91,0-1.67.22-2.27.67-.6.45-1.08,1.01-1.44,1.7s-.61,1.44-.74,2.26c-.14.82-.21,1.6-.21,2.33Z"/>
      <g id="g3804">
        <g id="layer1-1">
          <path id="cl" class="cls-6" d="m118.06,168.23s11.35-9.08,11.35-21.66c0-7.37-6.54-19.6-21.66-19.6s-21.66,12.24-21.66,19.6c0,12.58,11.35,21.66,11.35,21.66-12.6-9.82-35.07-3.12-35.07,16.51,0,9.82,8.03,20.63,20.63,20.63,15.12,0,21.66-16.51,21.66-16.51,0,0,1.92,18.81-9.28,28.89h24.76c-11.2-10.07-9.28-28.89-9.28-28.89,0,0,6.54,16.51,21.66,16.51,12.61,0,20.63-10.81,20.63-20.63,0-19.62-22.47-26.32-35.07-16.51Z"/>
        </g>
        <path id="path3762" class="cls-5" d="m63.2,192.62s-1.48-18.9,4.18-24.46c6.36-6.24,25.61-2.28,25.61-2.28,0,0-13.09,4.94-18.29,9.67-4.98,4.52-11.5,17.06-11.5,17.06Z"/>
        <path id="path3762-6" class="cls-3" d="m88.7,156.19s-1.48-18.9,4.18-24.46c6.36-6.24,25.61-2.28,25.61-2.28,0,0-13.09,4.94-18.29,9.67-4.98,4.52-11.5,17.06-11.5,17.06Z"/>
        <path id="path3762-7" class="cls-4" d="m106.39,190.28s11.66-22.35,21.36-25.06c10.9-3.05,27.95,13.65,27.95,13.65,0,0-16.92-2.69-25.58-.64-8.28,1.96-23.74,12.05-23.74,12.05Z"/>
      </g>
      <g id="layer1-1-4">
        <path id="cl-9" class="cls-2" d="m43.08,82.24s4.23-3.39,4.23-8.08c0-2.75-2.44-7.31-8.08-7.31s-8.08,4.57-8.08,7.31c0,4.7,4.23,8.08,4.23,8.08-4.7-3.66-13.09-1.16-13.09,6.16,0,3.67,3,7.7,7.7,7.7,5.64,0,8.08-6.16,8.08-6.16,0,0,.72,7.02-3.46,10.78h9.24c-4.18-3.76-3.46-10.78-3.46-10.78,0,0,2.44,6.16,8.08,6.16,4.7,0,7.7-4.03,7.7-7.7,0-7.32-8.38-9.82-13.09-6.16Z"/>
        <path id="cl-9-2" data-name="cl-9" d="m43.08,82.24s4.23-3.39,4.23-8.08c0-2.75-2.44-7.31-8.08-7.31s-8.08,4.57-8.08,7.31c0,4.7,4.23,8.08,4.23,8.08-4.7-3.66-13.09-1.16-13.09,6.16,0,3.67,3,7.7,7.7,7.7,5.64,0,8.08-6.16,8.08-6.16,0,0,.72,7.02-3.46,10.78h9.24c-4.18-3.76-3.46-10.78-3.46-10.78,0,0,2.44,6.16,8.08,6.16,4.7,0,7.7-4.03,7.7-7.7,0-7.32-8.38-9.82-13.09-6.16Z"/>
      </g>
    </g>
  </g>
</svg>