<?xml version="1.0" encoding="UTF-8"?>
<svg id="Layer_2" data-name="Layer 2" xmlns="http://www.w3.org/2000/svg" xmlns:xlink="http://www.w3.org/1999/xlink" viewBox="0 0 166.59 242.17">
  <defs>
    <style>
      .cls-1 {
        fill: #fff;
      }

      .cls-2 {
        fill: #df0000;
      }

      .cls-3 {
        fill: url(#radial-gradient);
      }
    </style>
    <radialGradient id="radial-gradient" cx="-1862.43" cy="-809.39" fx="-1862.43" fy="-809.39" r="6.4" gradientTransform="translate(-12291.07 9124.5) rotate(179.72) scale(6.68 -11.01)" gradientUnits="userSpaceOnUse">
      <stop offset="0" stop-color="#df0000"/>
      <stop offset="1" stop-color="#df0000" stop-opacity=".64"/>
    </radialGradient>
  </defs>
  <g id="svg2">
    <g>
      <g id="Layer_1-2" data-name="Layer_1">
        <path id="path5" class="cls-1" d="m166.59,236.17c0,3.3-2.7,6-6,6H6c-3.3,0-6-2.7-6-6V6C0,2.7,2.7,0,6,0h154.59c3.3,0,6,2.7,6,6v230.17Z"/>
      </g>
      <g id="layer1-2">
        <path id="dl" class="cls-3" d="m121.48,148.15c-10.08-13.64-15.44-27.49-15.44-27.49,0,0-5.36,13.86-15.44,27.49-10.08,13.63-22.65,22.5-22.65,22.5,0,0,12.56,8.86,22.65,22.5,10.08,13.63,15.44,27.49,15.44,27.49,0,0,5.36-13.86,15.44-27.49,10.08-13.64,22.65-22.5,22.65-22.5,0,0-12.56-8.87-22.65-22.5Z"/>
      </g>
      <g id="layer1-2-6">
        <path id="dl-6" class="cls-2" d="m44.47,76.62c-3.75-5.08-5.75-10.23-5.75-10.23,0,0-2,5.16-5.75,10.23-3.75,5.07-8.43,8.37-8.43,8.37,0,0,4.68,3.3,8.43,8.38,3.75,5.07,5.75,10.23,5.75,10.23,0,0,2-5.16,5.75-10.23,3.75-5.08,8.43-8.38,8.43-8.38,0,0-4.68-3.3-8.43-8.37Z"/>
      </g>
      <path class="cls-2" d="m36.75,59.25c-.44-.11-.66-.3-.66-.56,0-.18.08-.37.24-.59.49-.68.95-1.42,1.39-2.22.44-.8.84-1.62,1.21-2.47.37-.85.7-1.68,1-2.51.3-.83.56-1.61.77-2.34-.83.24-1.68.44-2.56.59s-1.74.22-2.59.22c-1.58,0-3.05-.33-4.41-.99-1.36-.66-2.54-1.54-3.54-2.64-1-1.1-1.79-2.37-2.36-3.81-.57-1.44-.85-2.93-.85-4.48s.23-3.02.7-4.38c.46-1.36,1.11-2.6,1.93-3.71.82-1.12,1.79-2.11,2.91-2.99,1.11-.88,2.31-1.62,3.6-2.21,1.29-.59,2.63-1.05,4.03-1.37,1.4-.32,2.81-.48,4.22-.48,1.9,0,3.63.43,5.16,1.28,1.54.85,2.85,1.96,3.94,3.33s1.93,2.91,2.53,4.61c.59,1.71.89,3.42.89,5.13,0,1.61-.19,3.17-.56,4.69s-.88,2.99-1.51,4.43c-.63,1.44-1.37,2.84-2.2,4.19-.83,1.35-1.71,2.66-2.64,3.93s-1.87,2.49-2.82,3.67c-.95,1.18-1.87,2.32-2.75,3.43-.05.05-.11.1-.18.15s-.17.07-.28.07-.23-.03-.34-.1c-.42-.23-.81-.43-1.15-.61-.34-.18-.68-.34-1-.49s-.66-.29-1-.42c-.34-.13-.72-.25-1.12-.37Zm-1.66-23.58c0,.85.1,1.66.29,2.45.2.79.5,1.49.92,2.09.42.6.96,1.09,1.62,1.45.67.37,1.47.55,2.42.55.36,0,.67-.03.93-.09.26-.06.6-.16,1.03-.3.18-.73.33-1.36.44-1.88.11-.52.2-1.01.26-1.46.06-.46.1-.92.12-1.38.02-.46.04-1,.04-1.6,0-.36-.01-.78-.04-1.26-.02-.48-.08-.97-.16-1.48-.08-.5-.2-1-.34-1.49s-.35-.92-.6-1.29c-.25-.37-.56-.68-.93-.92-.37-.24-.81-.35-1.33-.35-.91,0-1.67.22-2.27.67-.6.45-1.08,1.01-1.44,1.7s-.61,1.44-.74,2.26c-.14.82-.21,1.6-.21,2.33Z"/>
    </g>
  </g>
</svg>