<?xml version="1.0" encoding="UTF-8"?>
<svg id="Layer_2" data-name="Layer 2" xmlns="http://www.w3.org/2000/svg" xmlns:xlink="http://www.w3.org/1999/xlink" viewBox="0 0 166.59 242.17">
  <defs>
    <style>
      .cls-1 {
        fill: #fff;
      }

      .cls-2 {
        fill: #df0000;
      }

      .cls-3 {
        fill: url(#radial-gradient-3);
      }

      .cls-4 {
        fill: url(#radial-gradient-2);
      }

      .cls-5 {
        fill: url(#radial-gradient);
      }
    </style>
    <radialGradient id="radial-gradient" cx="-1134.09" cy="-811.98" fx="-1134.09" fy="-811.98" r="6.4" gradientTransform="translate(-7635.1 9072.34) rotate(-180) scale(6.83 -10.99)" gradientUnits="userSpaceOnUse">
      <stop offset="0" stop-color="#df0000"/>
      <stop offset="1" stop-color="#df0000" stop-opacity=".67"/>
    </radialGradient>
    <radialGradient id="radial-gradient-2" cx="-825.4" cy="-10343.86" fx="-825.4" fy="-10343.86" r="65.52" gradientTransform="translate(-839.56 -2140.89) rotate(-31.19) scale(.39 -.23) skewX(1.04)" gradientUnits="userSpaceOnUse">
      <stop offset="0" stop-color="#fff" stop-opacity=".31"/>
      <stop offset="1" stop-color="#000" stop-opacity="0"/>
    </radialGradient>
    <radialGradient id="radial-gradient-3" cx="699.18" cy="-10975.65" fx="699.18" fy="-10975.65" r="65.52" gradientTransform="translate(-733.71 -2087.3) rotate(-23.03) scale(.32 -.22) skewX(5.07)" gradientUnits="userSpaceOnUse">
      <stop offset="0" stop-color="#fff" stop-opacity=".29"/>
      <stop offset="1" stop-color="#000" stop-opacity="0"/>
    </radialGradient>
  </defs>
  <g id="svg2">
    <g>
      <g id="Layer_1-2" data-name="Layer_1">
        <path id="path5" class="cls-1" d="m166.59,236.17c0,3.3-2.7,5.99-5.99,5.99H5.99c-3.29,0-5.99-2.69-5.99-5.99V6C0,2.7,2.7,0,6,0h154.6c3.3,0,6,2.7,6,6v230.18Z"/>
      </g>
      <path class="cls-2" d="m36.01,57.25c-.44-.11-.66-.3-.66-.56,0-.18.08-.38.24-.59.49-.68.95-1.42,1.39-2.22.44-.8.84-1.62,1.21-2.46s.7-1.69,1-2.52c.3-.83.56-1.61.77-2.34-.83.24-1.68.44-2.56.59s-1.74.22-2.59.22c-1.58,0-3.05-.33-4.41-.99-1.36-.66-2.54-1.54-3.54-2.64-1-1.1-1.79-2.37-2.36-3.81-.57-1.44-.85-2.93-.85-4.48s.23-3.02.7-4.38,1.11-2.6,1.93-3.71c.82-1.12,1.79-2.11,2.91-2.99,1.11-.88,2.31-1.62,3.6-2.21,1.29-.59,2.63-1.05,4.03-1.37,1.4-.32,2.81-.47,4.22-.47,1.9,0,3.63.43,5.16,1.28,1.54.85,2.85,1.96,3.94,3.33s1.93,2.91,2.53,4.62c.59,1.71.89,3.42.89,5.13,0,1.61-.19,3.17-.56,4.69s-.88,2.99-1.51,4.43c-.63,1.44-1.37,2.84-2.2,4.19-.83,1.35-1.71,2.66-2.64,3.93s-1.87,2.49-2.82,3.67-1.87,2.32-2.75,3.43c-.05.05-.11.1-.18.15s-.17.07-.28.07-.23-.03-.34-.1c-.42-.23-.81-.43-1.15-.61s-.68-.34-1-.49-.66-.29-1-.41c-.34-.13-.72-.25-1.12-.37Zm-1.66-23.58c0,.85.1,1.66.29,2.45.2.79.5,1.49.92,2.09.42.6.96,1.09,1.62,1.45.67.37,1.47.55,2.42.55.36,0,.67-.03.93-.09.26-.06.6-.16,1.03-.3.18-.73.33-1.36.44-1.88s.2-1.01.26-1.46c.06-.46.1-.92.12-1.38.02-.46.04-1,.04-1.6,0-.36-.01-.78-.04-1.26s-.08-.97-.16-1.48-.2-1-.34-1.49-.35-.92-.6-1.29c-.25-.38-.56-.68-.93-.92s-.81-.35-1.33-.35c-.91,0-1.67.22-2.27.67-.6.45-1.08,1.01-1.44,1.7s-.61,1.44-.74,2.26c-.14.82-.21,1.6-.21,2.33Z"/>
      <g id="g3036">
        <g id="layer1-9">
          <path id="hl" class="cls-5" d="m126.97,130.03c-17.71,0-20.07,17.77-20.07,17.77,0,0-2.36-17.77-20.07-17.77-12.4,0-23.61,7.97-23.61,23,0,19.86,35.93,39.83,43.68,68.99,7.38-29.14,43.68-49.13,43.68-68.99,0-15.03-11.22-23-23.61-23Z"/>
        </g>
        <path id="path3762-6-4" class="cls-4" d="m64.33,167.02s-1.89-22.99,5.34-29.74c8.13-7.59,32.73-2.77,32.73-2.77,0,0-16.72,6.01-23.38,11.76-6.36,5.49-14.69,20.75-14.69,20.75Z"/>
        <path id="path3762-6-2-3" class="cls-3" d="m106.2,160.17s3.46-21.39,10.52-25.9c7.94-5.08,26.02,4.93,26.02,4.93,0,0-13.38,4.83-19.78,8.55-6.12,3.56-16.76,12.43-16.76,12.43Z"/>
      </g>
      <g id="layer1-9-6">
        <path id="hl-8" class="cls-2" d="m46.32,68.22c-6.52,0-7.39,6.54-7.39,6.54,0,0-.87-6.54-7.39-6.54-4.56,0-8.69,2.93-8.69,8.46,0,7.31,13.22,14.66,16.07,25.39,2.72-10.72,16.07-18.08,16.07-25.39,0-5.53-4.13-8.46-8.69-8.46Z"/>
      </g>
    </g>
  </g>
</svg>