<?xml version="1.0" encoding="UTF-8"?>
<svg id="Layer_2" data-name="Layer 2" xmlns="http://www.w3.org/2000/svg" xmlns:xlink="http://www.w3.org/1999/xlink" viewBox="0 0 166.59 242.17">
  <defs>
    <style>
      .cls-1 {
        fill: #fff;
      }

      .cls-2 {
        fill: url(#radial-gradient);
      }
    </style>
    <radialGradient id="radial-gradient" cx="-1324.67" cy="-847" fx="-1324.67" fy="-847" r="6.4" gradientTransform="translate(-13293.24 12072.65) rotate(-179.22) scale(9.99 -14.29)" gradientUnits="userSpaceOnUse">
      <stop offset="0" stop-color="#000"/>
      <stop offset="1" stop-color="#000" stop-opacity=".65"/>
    </radialGradient>
  </defs>
  <g id="svg2">
    <g>
      <g id="Layer_1-2" data-name="Layer_1">
        <path id="path5" class="cls-1" d="m166.59,236.17c0,3.3-2.7,5.99-5.99,5.99H5.99c-3.29,0-5.99-2.69-5.99-5.99V6C0,2.7,2.7,0,6,0h154.6c3.3,0,6,2.7,6,6v230.18Z"/>
      </g>
      <path d="m36.01,57.25c-.44-.11-.66-.3-.66-.56,0-.18.08-.37.24-.59.49-.68.95-1.42,1.39-2.22.44-.8.84-1.62,1.21-2.47.37-.85.7-1.68,1-2.51s.56-1.61.77-2.34c-.83.24-1.68.44-2.56.59s-1.74.22-2.59.22c-1.58,0-3.05-.33-4.41-.99-1.36-.66-2.54-1.54-3.54-2.64-1-1.1-1.79-2.37-2.36-3.81-.57-1.44-.85-2.93-.85-4.48s.23-3.02.7-4.38c.46-1.36,1.11-2.6,1.93-3.71.82-1.12,1.79-2.11,2.91-2.99s2.32-1.62,3.6-2.21c1.29-.59,2.63-1.05,4.03-1.37,1.4-.32,2.81-.48,4.22-.48,1.9,0,3.62.43,5.16,1.28,1.54.85,2.85,1.96,3.94,3.33,1.09,1.37,1.93,2.91,2.53,4.61s.89,3.42.89,5.13c0,1.61-.19,3.17-.56,4.69-.38,1.51-.88,2.99-1.51,4.43-.63,1.44-1.37,2.84-2.2,4.19-.83,1.35-1.71,2.66-2.64,3.93s-1.87,2.49-2.82,3.67c-.95,1.18-1.87,2.32-2.75,3.43-.05.05-.11.1-.18.15s-.17.07-.28.07-.23-.03-.34-.1c-.42-.23-.81-.43-1.15-.61-.34-.18-.68-.34-1-.49-.33-.15-.66-.29-1-.42-.34-.13-.72-.25-1.12-.37Zm-1.66-23.58c0,.85.1,1.66.29,2.45.2.79.5,1.49.92,2.09.42.6.96,1.09,1.62,1.45.67.37,1.47.55,2.42.55.36,0,.67-.03.93-.09.26-.06.6-.16,1.03-.3.18-.73.33-1.36.44-1.88.11-.52.2-1.01.26-1.46.06-.46.1-.92.12-1.38.02-.46.04-1,.04-1.6,0-.36-.01-.78-.04-1.26-.02-.48-.08-.97-.16-1.48-.08-.5-.2-1-.34-1.49s-.35-.92-.6-1.29c-.25-.37-.56-.68-.93-.92-.37-.24-.81-.35-1.33-.35-.91,0-1.67.22-2.27.67-.6.45-1.08,1.01-1.44,1.7-.36.68-.61,1.44-.75,2.26-.14.82-.21,1.6-.21,2.33Z"/>
      <g id="g3886">
        <g id="layer1-7-1">
          <path id="sl-5" class="cls-2" d="m147.97,188.11c-1.22-18.72-39.09-53.94-40.31-62.75-1.22,8.81-39.09,44.03-40.31,62.75-.85,13.23,8.55,18.72,17.1,18.72,9.26-.1,16.91-12.92,19.54-15.41,1.22,3.3-8.09,30.82-10.99,30.82h29.32c-2.91,0-12.21-27.52-10.99-30.82,2.31,2.29,9.07,15.03,19.55,15.41,8.55,0,17.95-5.48,17.09-18.72Z"/>
        </g>
      </g>
      <g id="layer1-7">
        <path id="sl" d="m53.14,88.96c-.44-6.72-14.02-19.35-14.46-22.52-.44,3.16-14.02,15.8-14.46,22.52-.31,4.75,3.07,6.72,6.14,6.72,3.32-.04,6.07-4.64,7.01-5.53.44,1.19-2.9,11.06-3.94,11.06h10.52c-1.04,0-4.38-9.87-3.94-11.06.83.82,3.25,5.39,7.01,5.53,3.07,0,6.44-1.97,6.13-6.72Z"/>
      </g>
    </g>
  </g>
</svg>