<?xml version="1.0" encoding="UTF-8"?>
<svg id="Layer_2" data-name="Layer 2" xmlns="http://www.w3.org/2000/svg" xmlns:xlink="http://www.w3.org/1999/xlink" viewBox="0 0 166.59 242.17">
  <defs>
    <style>
      .cls-1 {
        fill: #fff;
      }

      .cls-2 {
        fill: #fffeff;
      }

      .cls-3 {
        fill: url(#radial-gradient-3);
      }

      .cls-4 {
        fill: url(#radial-gradient-4);
      }

      .cls-5 {
        fill: url(#radial-gradient-2);
      }

      .cls-6 {
        fill: url(#radial-gradient);
      }
    </style>
    <radialGradient id="radial-gradient" cx="-1509.73" cy="512.4" fx="-1509.73" fy="512.4" r="7.6" gradientTransform="translate(-14043.87 -6699.23) rotate(179.33) scale(9.32 -13.68)" gradientUnits="userSpaceOnUse">
      <stop offset="0" stop-color="#000"/>
      <stop offset="1" stop-color="#000" stop-opacity=".66"/>
    </radialGradient>
    <radialGradient id="radial-gradient-2" cx="2352.34" cy="-5463.59" fx="2352.34" fy="-5463.59" r="65.52" gradientTransform="translate(-1041.24 -352.02) rotate(-32.46) scale(.31 -.19) skewX(2.58)" gradientUnits="userSpaceOnUse">
      <stop offset="0" stop-color="#fff" stop-opacity=".53"/>
      <stop offset="1" stop-color="#000" stop-opacity="0"/>
    </radialGradient>
    <radialGradient id="radial-gradient-3" cx="2320.48" cy="-5486" fx="2320.48" fy="-5486" r="65.52" gradientTransform="translate(-1009.37 -397.56) rotate(-32.46) scale(.31 -.19) skewX(2.58)" gradientUnits="userSpaceOnUse">
      <stop offset="0" stop-color="#fff" stop-opacity=".52"/>
      <stop offset="1" stop-color="#000" stop-opacity="0"/>
    </radialGradient>
    <radialGradient id="radial-gradient-4" cx="2541.35" cy="-1590.87" fx="2541.35" fy="-1590.87" r="65.52" gradientTransform="translate(-814.31 -173.23) rotate(-3.38) scale(.39 -.25) skewX(5.7)" gradientUnits="userSpaceOnUse">
      <stop offset="0" stop-color="#fff" stop-opacity=".7"/>
      <stop offset="1" stop-color="#000" stop-opacity="0"/>
    </radialGradient>
  </defs>
  <g id="svg2">
    <g>
      <g id="Layer_1-2" data-name="Layer_1">
        <path id="path5" class="cls-1" d="m166.59,236.16c0,3.3-2.7,6-6,6H6c-3.3,0-6-2.7-6-6V6C0,2.7,2.7,0,6,0h154.58c3.3,0,6,2.7,6,6v230.16Z"/>
      </g>
      <path d="m23.1,54.52c.21-.42.43-.9.66-1.43.23-.53.44-1.1.63-1.72l.66-1.61c-.29-.44-.59-.92-.89-1.43-.3-.51-.57-1.04-.82-1.58s-.44-1.07-.6-1.61c-.16-.54-.23-1.06-.23-1.56,0-.03.13-.06.38-.08.25-.03.57-.04.95-.06.38-.02.8-.03,1.25-.04.45,0,.86-.02,1.24-.03.38,0,.83-.02,1.33-.04.37-.98.74-1.9,1.1-2.78.36-.88.72-1.77,1.07-2.66.36-.89.72-1.81,1.07-2.75.36-.94.72-1.94,1.07-3.02.68-2.02,1.35-3.79,2-5.32.65-1.53,1.26-2.95,1.83-4.27.07-.16.17-.31.33-.45.15-.14.32-.26.5-.35s.35-.18.52-.24c.17-.06.31-.11.4-.15.07-.02.31-.09.75-.22.43-.13.92-.27,1.48-.42.55-.15,1.1-.28,1.65-.39.54-.11.98-.17,1.31-.17h.44c.26,0,.51.06.75.18.24.12.39.36.48.72.78,2,1.62,4.19,2.5,6.55.89,2.37,1.75,4.98,2.6,7.83.46,1.53.9,2.98,1.34,4.35s.88,2.7,1.32,4c.44,1.3.88,2.6,1.33,3.91.45,1.3.91,2.65,1.38,4.03.15.59.3,1.05.45,1.39s.3.61.43.81c.13.2.24.34.32.43.08.09.12.18.12.28s-.15.2-.46.29l-5.25,1.71c-.39.15-.79.29-1.2.44s-.79.28-1.15.39c-.36.11-.67.21-.94.28-.27.07-.46.11-.57.11h-.15c-.23,0-.39-.07-.49-.21-.1-.14-.16-.27-.2-.4-.16-.54-.33-1.02-.49-1.45-.16-.43-.32-.86-.48-1.29-.15-.43-.31-.89-.46-1.38-.16-.49-.31-1.07-.45-1.73-.03-.08-.12-.15-.27-.21-.15-.06-.32-.1-.53-.13-.2-.03-.42-.05-.65-.06-.23,0-.44-.01-.63-.01-.62,0-1.12,0-1.5.01-.38,0-.72.02-1.01.02-.29,0-.57.02-.84.03-.27,0-.6.01-.99.01-.47,0-.96,0-1.45-.01-.5,0-.95-.02-1.35-.04l-1.39-.05c-.42,1.17-.85,2.27-1.27,3.3-.42,1.03-.88,2.08-1.37,3.17-.03.13-.11.24-.23.32-.12.08-.25.12-.38.12-.1,0-.16,0-.17-.02-1.58-.57-2.91-1.13-3.98-1.68s-2.01-1.09-2.81-1.61Zm16.46-21.95c-.39,1.45-.78,2.76-1.16,3.94-.38,1.18-.73,2.23-1.05,3.14-.32.91-.59,1.68-.82,2.31-.23.63-.39,1.11-.49,1.45v.22c0,.1,0,.16-.02.2h5.86c-.18-.8-.37-1.6-.57-2.42-.2-.81-.4-1.67-.6-2.56-.2-.89-.39-1.86-.59-2.88s-.38-2.16-.56-3.39Z"/>
      <g id="g3804">
        <g id="layer1-1">
          <path id="cl" class="cls-6" d="m118.06,168.23s11.35-9.08,11.35-21.66c0-7.37-6.54-19.6-21.66-19.6s-21.66,12.24-21.66,19.6c0,12.58,11.35,21.66,11.35,21.66-12.6-9.82-35.07-3.12-35.07,16.51,0,9.82,8.03,20.63,20.63,20.63,15.12,0,21.66-16.51,21.66-16.51,0,0,1.92,18.81-9.28,28.89h24.76c-11.2-10.07-9.28-28.89-9.28-28.89,0,0,6.54,16.51,21.66,16.51,12.61,0,20.63-10.81,20.63-20.63,0-19.62-22.47-26.32-35.07-16.51Z"/>
        </g>
        <path id="path3762" class="cls-5" d="m63.2,192.62s-1.48-18.9,4.18-24.46c6.36-6.24,25.61-2.28,25.61-2.28,0,0-13.09,4.94-18.29,9.67-4.98,4.52-11.5,17.06-11.5,17.06Z"/>
        <path id="path3762-6" class="cls-3" d="m88.7,156.19s-1.48-18.9,4.18-24.46c6.36-6.24,25.61-2.28,25.61-2.28,0,0-13.09,4.94-18.29,9.67-4.98,4.52-11.5,17.06-11.5,17.06Z"/>
        <path id="path3762-7" class="cls-4" d="m106.39,190.28s11.66-22.35,21.36-25.06c10.9-3.05,27.95,13.65,27.95,13.65,0,0-16.92-2.69-25.58-.64-8.28,1.96-23.74,12.05-23.74,12.05Z"/>
      </g>
      <g id="layer1-1-4">
        <path id="cl-9" class="cls-2" d="m43.08,82.24s4.23-3.39,4.23-8.08c0-2.75-2.44-7.31-8.08-7.31s-8.08,4.57-8.08,7.31c0,4.7,4.23,8.08,4.23,8.08-4.7-3.66-13.09-1.16-13.09,6.16,0,3.67,3,7.7,7.7,7.7,5.64,0,8.08-6.16,8.08-6.16,0,0,.72,7.02-3.46,10.78h9.24c-4.18-3.76-3.46-10.78-3.46-10.78,0,0,2.44,6.16,8.08,6.16,4.7,0,7.7-4.03,7.7-7.7,0-7.32-8.38-9.82-13.09-6.16Z"/>
        <path id="cl-9-2" data-name="cl-9" d="m43.08,82.24s4.23-3.39,4.23-8.08c0-2.75-2.44-7.31-8.08-7.31s-8.08,4.57-8.08,7.31c0,4.7,4.23,8.08,4.23,8.08-4.7-3.66-13.09-1.16-13.09,6.16,0,3.67,3,7.7,7.7,7.7,5.64,0,8.08-6.16,8.08-6.16,0,0,.72,7.02-3.46,10.78h9.24c-4.18-3.76-3.46-10.78-3.46-10.78,0,0,2.44,6.16,8.08,6.16,4.7,0,7.7-4.03,7.7-7.7,0-7.32-8.38-9.82-13.09-6.16Z"/>
      </g>
    </g>
  </g>
</svg>