<?xml version="1.0" encoding="UTF-8"?>
<svg id="Layer_2" data-name="Layer 2" xmlns="http://www.w3.org/2000/svg" xmlns:xlink="http://www.w3.org/1999/xlink" viewBox="0 0 166.59 242.17">
  <defs>
    <style>
      .cls-1 {
        fill: #fff;
      }

      .cls-2 {
        fill: #df0000;
      }

      .cls-3 {
        fill: url(#radial-gradient-3);
      }

      .cls-4 {
        fill: url(#radial-gradient-2);
      }

      .cls-5 {
        fill: url(#radial-gradient);
      }
    </style>
    <radialGradient id="radial-gradient" cx="-1129.8" cy="538.54" fx="-1129.8" fy="538.54" r="6.4" gradientTransform="translate(-7605.79 -5768.17) rotate(-180) scale(6.83 -10.99)" gradientUnits="userSpaceOnUse">
      <stop offset="0" stop-color="#df0000"/>
      <stop offset="1" stop-color="#df0000" stop-opacity=".67"/>
    </radialGradient>
    <radialGradient id="radial-gradient-2" cx="1025.21" cy="-3432.28" fx="1025.21" fy="-3432.28" r="65.52" gradientTransform="translate(-665.67 -350.69) rotate(-31.19) scale(.39 -.23) skewX(1.04)" gradientUnits="userSpaceOnUse">
      <stop offset="0" stop-color="#fff" stop-opacity=".31"/>
      <stop offset="1" stop-color="#000" stop-opacity="0"/>
    </radialGradient>
    <radialGradient id="radial-gradient-3" cx="1953.42" cy="-3182.14" fx="1953.42" fy="-3182.14" r="65.52" gradientTransform="translate(-643.67 -287.93) rotate(-23.03) scale(.32 -.22) skewX(5.07)" gradientUnits="userSpaceOnUse">
      <stop offset="0" stop-color="#fff" stop-opacity=".29"/>
      <stop offset="1" stop-color="#000" stop-opacity="0"/>
    </radialGradient>
  </defs>
  <g id="svg2">
    <g>
      <g id="Layer_1-2" data-name="Layer_1">
        <path id="path5" class="cls-1" d="m166.59,236.17c0,3.3-2.7,6-6,6H5.99c-3.29,0-5.99-2.7-5.99-5.99V6C0,2.7,2.7,0,6,0h154.59c3.3,0,6,2.7,6,6v230.17Z"/>
      </g>
      <path class="cls-2" d="m22.63,54.98c.21-.42.43-.9.66-1.43.23-.53.44-1.1.63-1.72l.66-1.61c-.29-.44-.59-.92-.89-1.43-.3-.51-.57-1.04-.82-1.58s-.44-1.07-.6-1.61c-.16-.54-.23-1.06-.23-1.56,0-.03.13-.06.38-.08.25-.03.57-.04.95-.06.38-.02.8-.03,1.25-.04.45,0,.86-.02,1.24-.03.38,0,.83-.02,1.33-.04.37-.98.74-1.9,1.1-2.78.36-.88.72-1.77,1.07-2.66.36-.89.72-1.81,1.07-2.75.36-.94.72-1.94,1.07-3.02.68-2.02,1.35-3.79,2-5.32.65-1.53,1.26-2.95,1.83-4.27.07-.16.17-.31.33-.45.15-.14.32-.26.5-.35s.35-.18.52-.24c.17-.06.31-.11.4-.15.07-.02.31-.09.75-.22.43-.13.92-.27,1.48-.42.55-.15,1.1-.28,1.65-.39.54-.11.98-.17,1.31-.17h.44c.26,0,.51.06.75.18.24.12.39.36.48.72.78,2,1.62,4.19,2.5,6.55.89,2.37,1.75,4.98,2.6,7.83.46,1.53.9,2.98,1.34,4.35s.88,2.7,1.32,4c.44,1.3.88,2.6,1.33,3.91.45,1.3.91,2.65,1.38,4.03.15.59.3,1.05.45,1.39s.3.61.43.81c.13.2.24.34.32.43.08.09.12.18.12.28s-.15.2-.46.29l-5.25,1.71c-.39.15-.79.29-1.2.44s-.79.28-1.15.39c-.36.11-.67.21-.94.28-.27.07-.46.11-.57.11h-.15c-.23,0-.39-.07-.49-.21-.1-.14-.16-.27-.2-.4-.16-.54-.33-1.02-.49-1.45-.16-.43-.32-.86-.48-1.29-.15-.43-.31-.89-.46-1.38-.16-.49-.31-1.07-.45-1.73-.03-.08-.12-.15-.27-.21-.15-.06-.32-.1-.53-.13-.2-.03-.42-.05-.65-.06-.23,0-.44-.01-.63-.01-.62,0-1.12,0-1.5.01-.38,0-.72.02-1.01.02-.29,0-.57.02-.84.03-.27,0-.6.01-.99.01-.47,0-.96,0-1.45-.01-.5,0-.95-.02-1.35-.04l-1.39-.05c-.42,1.17-.85,2.27-1.27,3.3-.42,1.03-.88,2.08-1.37,3.17-.03.13-.11.24-.23.32-.12.08-.25.12-.38.12-.1,0-.16,0-.17-.02-1.58-.57-2.91-1.13-3.98-1.68s-2.01-1.09-2.81-1.61Zm16.46-21.95c-.39,1.45-.78,2.76-1.16,3.94-.38,1.18-.73,2.23-1.05,3.14-.32.91-.59,1.68-.82,2.31-.23.63-.39,1.11-.49,1.45v.22c0,.1,0,.16-.02.2h5.86c-.18-.8-.37-1.6-.57-2.42-.2-.81-.4-1.67-.6-2.56-.2-.89-.39-1.86-.59-2.88s-.38-2.16-.56-3.39Z"/>
      <g id="g3036">
        <g id="layer1-9">
          <path id="hl" class="cls-5" d="m126.97,130.03c-17.71,0-20.07,17.77-20.07,17.77,0,0-2.36-17.77-20.07-17.77-12.4,0-23.61,7.97-23.61,23,0,19.86,35.93,39.83,43.68,68.99,7.38-29.14,43.68-49.13,43.68-68.99,0-15.03-11.22-23-23.61-23Z"/>
        </g>
        <path id="path3762-6-4" class="cls-4" d="m64.33,167.02s-1.89-22.99,5.34-29.74c8.13-7.59,32.73-2.77,32.73-2.77,0,0-16.72,6.01-23.38,11.76-6.36,5.49-14.69,20.75-14.69,20.75Z"/>
        <path id="path3762-6-2-3" class="cls-3" d="m106.2,160.17s3.46-21.39,10.52-25.9c7.94-5.08,26.02,4.93,26.02,4.93,0,0-13.38,4.83-19.78,8.55-6.12,3.56-16.76,12.43-16.76,12.43Z"/>
      </g>
      <g id="layer1-9-6">
        <path id="hl-8" class="cls-2" d="m46.32,68.22c-6.52,0-7.39,6.54-7.39,6.54,0,0-.87-6.54-7.39-6.54-4.56,0-8.69,2.93-8.69,8.46,0,7.31,13.22,14.66,16.07,25.39,2.72-10.72,16.07-18.08,16.07-25.39,0-5.53-4.13-8.46-8.69-8.46Z"/>
      </g>
    </g>
  </g>
</svg>