<?xml version="1.0" encoding="UTF-8"?>
<svg id="Layer_2" data-name="Layer 2" xmlns="http://www.w3.org/2000/svg" xmlns:xlink="http://www.w3.org/1999/xlink" viewBox="0 0 166.59 242.17">
  <defs>
    <style>
      .cls-1 {
        fill: #fff;
      }

      .cls-2 {
        fill: url(#radial-gradient);
      }
    </style>
    <radialGradient id="radial-gradient" cx="-1318.53" cy="534.76" fx="-1318.53" fy="534.76" r="6.4" gradientTransform="translate(-12964.22 -7666.96) rotate(-179.22) scale(9.99 -14.29)" gradientUnits="userSpaceOnUse">
      <stop offset="0" stop-color="#000"/>
      <stop offset="1" stop-color="#000" stop-opacity=".65"/>
    </radialGradient>
  </defs>
  <g id="svg2">
    <g>
      <g id="Layer_1-2" data-name="Layer_1">
        <path id="path5" class="cls-1" d="m166.59,236.17c0,3.3-2.7,6-6,6H6c-3.3,0-6-2.7-6-6V6C0,2.7,2.7,0,6,0h154.58c3.3,0,6,2.7,6,6v230.17Z"/>
      </g>
      <path d="m22.63,54.98c.21-.42.43-.9.66-1.43.23-.53.44-1.1.63-1.72l.66-1.61c-.29-.44-.59-.92-.89-1.43-.3-.51-.57-1.04-.82-1.58s-.44-1.07-.6-1.61c-.16-.54-.23-1.06-.23-1.56,0-.03.13-.06.38-.08.25-.03.57-.04.95-.06.38-.02.8-.03,1.25-.04.45,0,.86-.02,1.25-.03.38,0,.83-.02,1.33-.04.37-.98.74-1.9,1.1-2.78s.72-1.77,1.07-2.66c.36-.89.72-1.81,1.07-2.75.36-.94.72-1.94,1.07-3.02.68-2.02,1.35-3.79,2-5.32.65-1.53,1.26-2.95,1.83-4.27.07-.16.17-.31.33-.45.15-.14.32-.26.5-.35s.35-.18.53-.24c.17-.06.3-.11.4-.15.07-.02.31-.09.75-.22.43-.13.92-.27,1.48-.42s1.1-.28,1.65-.39c.54-.11.98-.17,1.31-.17h.44c.26,0,.51.06.75.18.24.12.39.36.48.72.78,2,1.62,4.19,2.5,6.55.89,2.37,1.75,4.98,2.6,7.83.46,1.53.9,2.98,1.34,4.35s.88,2.7,1.32,4c.44,1.3.88,2.6,1.33,3.91.45,1.3.91,2.65,1.38,4.03.15.59.3,1.05.45,1.39.15.34.3.61.43.81s.24.34.32.43c.08.09.12.18.12.28s-.15.2-.46.29l-5.25,1.71c-.39.15-.79.29-1.2.44s-.79.28-1.15.39c-.36.11-.67.21-.94.28-.27.07-.46.11-.57.11h-.15c-.23,0-.39-.07-.49-.21-.1-.14-.16-.27-.2-.4-.16-.54-.33-1.02-.49-1.45-.16-.43-.32-.86-.48-1.29-.16-.43-.31-.89-.46-1.38-.16-.49-.31-1.07-.45-1.73-.03-.08-.12-.15-.27-.21-.15-.06-.32-.1-.52-.13-.2-.03-.42-.05-.65-.06-.23,0-.44-.01-.63-.01-.62,0-1.12,0-1.5.01-.38,0-.72.02-1.01.02-.29,0-.57.02-.84.03-.27,0-.6.01-.99.01-.47,0-.96,0-1.45-.01-.5,0-.95-.02-1.36-.04l-1.39-.05c-.42,1.17-.85,2.27-1.27,3.3s-.88,2.08-1.37,3.17c-.03.13-.11.24-.23.32-.12.08-.25.12-.38.12-.1,0-.15,0-.17-.02-1.58-.57-2.91-1.13-3.98-1.68s-2.01-1.09-2.81-1.61Zm16.46-21.95c-.39,1.45-.78,2.76-1.16,3.94-.38,1.18-.73,2.23-1.05,3.14-.32.91-.59,1.68-.82,2.31-.23.63-.39,1.11-.49,1.45v.22c0,.1,0,.16-.02.2h5.86c-.18-.8-.37-1.6-.57-2.42-.2-.81-.4-1.67-.6-2.56-.2-.89-.39-1.86-.59-2.88s-.38-2.16-.56-3.39Z"/>
      <g id="g3886">
        <g id="layer1-7-1">
          <path id="sl-5" class="cls-2" d="m147.97,188.11c-1.22-18.72-39.09-53.94-40.31-62.75-1.22,8.81-39.09,44.03-40.31,62.75-.85,13.23,8.55,18.72,17.1,18.72,9.26-.1,16.91-12.92,19.54-15.41,1.22,3.3-8.09,30.82-10.99,30.82h29.32c-2.91,0-12.21-27.52-10.99-30.82,2.31,2.29,9.07,15.03,19.55,15.41,8.55,0,17.95-5.48,17.09-18.72Z"/>
        </g>
      </g>
      <g id="layer1-7">
        <path id="sl" d="m53.14,88.96c-.44-6.72-14.02-19.35-14.46-22.52-.44,3.16-14.02,15.8-14.46,22.52-.31,4.75,3.07,6.72,6.14,6.72,3.32-.04,6.07-4.64,7.01-5.53.44,1.19-2.9,11.06-3.94,11.06h10.52c-1.04,0-4.38-9.87-3.94-11.06.83.82,3.25,5.39,7.01,5.53,3.07,0,6.44-1.97,6.13-6.72Z"/>
      </g>
    </g>
  </g>
</svg>