<?xml version="1.0" encoding="UTF-8"?>
<svg id="Layer_2" data-name="Layer 2" xmlns="http://www.w3.org/2000/svg" viewBox="0 0 166.6 242.2">
  <defs>
    <style>
      .cls-1 {
        fill: #fff;
      }

      .cls-2 {
        fill: #252528;
      }
    </style>
  </defs>
  <g id="svg2">
    <g>
      <path id="path5" class="cls-1" d="m166.6,236.2c0,3.3-2.7,6-6,6H6c-3.3,0-6-2.7-6-6V6C0,2.7,2.7,0,6,0h154.6c3.3,0,6,2.7,6,6v230.2Z"/>
      <g id="icons">
        <g id="ui-gambling-website-lined-icnos-casinoshunter">
          <g id="square-filled">
            <path id="casino-cards" class="cls-2" d="m111.37,136.82l3.1.83c.86.23,1.37,1.11,1.14,1.96s-1.11,1.36-1.97,1.13l-3.1-.83c-.86-.23-1.37-1.11-1.14-1.96s1.11-1.36,1.97-1.13Zm-14.4-49.95h-28.93c-1.78,0-3.21,1.43-3.21,3.2v41.64c0,1.77,1.44,3.2,3.21,3.2h28.93c1.78,0,3.21-1.43,3.21-3.2v-41.64c0-1.77-1.44-3.2-3.21-3.2Zm-1.61,41.64c.89,0,1.61.72,1.61,1.6s-.72,1.6-1.61,1.6h-3.21c-.89,0-1.61-.72-1.61-1.6s.72-1.6,1.61-1.6h3.21Zm8.03-11.26l2.16,3.99,6.18-3.79.22-.14c.38-.28.66-.69.78-1.15.14-.54.07-1.12-.21-1.6-.28-.48-.74-.84-1.29-.98-.46-.12-.95-.09-1.39.1l-.21.11-1.07.62c-.71.41-1.6.21-2.08-.42l-.11-.17-.62-1.07c-.28-.48-.74-.84-1.28-.98-.35-.09-.72-.1-1.07,0v5.51Zm-17.38-14.36c1.41,0,2.77.56,3.77,1.56,1,1,1.56,2.35,1.56,3.76s-.56,2.74-1.53,3.72l-6.14,6.48c-.3.32-.73.5-1.17.5s-.87-.18-1.17-.5l-6.13-6.47c-.99-.99-1.54-2.34-1.54-3.74s.56-2.76,1.56-3.76,2.35-1.56,3.77-1.56c1.29,0,2.54.47,3.51,1.31l.27-.22c.92-.71,2.06-1.09,3.24-1.09Zm0,3.2c-.48,0-.94.16-1.32.46l-.18.16-.88.88c-.58.58-1.49.62-2.12.13l-.15-.13-.88-.88c-.4-.4-.93-.62-1.5-.62s-1.1.22-1.5.62c-.4.4-.62.93-.62,1.49,0,.48.16.94.47,1.32l.16.18,4.99,5.27,4.99-5.26.18-.19c.3-.37.46-.83.46-1.31,0-.56-.22-1.1-.62-1.49-.4-.4-.94-.62-1.5-.62Zm24.92,5.81h-.02s.2.02.2.02l-.18-.02Zm-.13,0h-.31s.41,0,.41,0h-.11Zm-51.38-1.42l-.1.05-.24.14.33-.19Zm15.85-2.28v.21s.01.07.01.07v-.28Zm1.09-2.62l.11-.1h0l-.11.1.22-.2-.22.2Zm8.9-1.01l-.11.02-.29.08.4-.1Zm.2-.04l-.17.03h-.02s.2-.03.2-.03Zm-39.79-3.71c.23.85-.28,1.73-1.14,1.96l-3.1.83c-.86.23-1.74-.28-1.97-1.13s.28-1.73,1.14-1.96l3.1-.83c.86-.23,1.74.28,1.97,1.13Zm57.73,7.68c.63-.06,1.27,0,1.9.16,1.25.34,2.33,1.11,3.05,2.18l.32-.14c1.08-.44,2.27-.52,3.41-.22,1.37.37,2.53,1.26,3.24,2.48.71,1.22.9,2.67.54,4.03-.36,1.35-1.25,2.51-2.44,3.2l-7.61,4.67c-.38.23-.83.3-1.26.18-.43-.11-.79-.4-1-.79l-.14-.27v7.73c0,3.54-2.88,6.41-6.43,6.41h-14.6s-.17.18-.17.18c-.75.72-1.69,1.27-2.77,1.56l-27.94,7.49c-3.43.92-6.95-1.11-7.87-4.52l-10.78-40.22c-.92-3.42,1.12-6.93,4.55-7.85l24.52-6.57c.81-2.61,3.25-4.5,6.14-4.5h28.93c2.89,0,5.33,1.9,6.14,4.5l24.52,6.57c3.43.92,5.47,4.43,4.55,7.85l-10.78,40.22c-.92,3.42-4.44,5.44-7.87,4.52l-27.94-7.49c-1.17-.31-2.17-.93-2.96-1.73h8.85s22.87,6.13,22.87,6.13c1.71.46,3.48-.55,3.93-2.26l10.78-40.22c.46-1.71-.56-3.47-2.28-3.93l-23.4-6.27v3.53c.4.39.58.98.43,1.56-.08.29-.23.54-.43.73v11.11Zm-30.53-18.43c.89,0,1.61.72,1.61,1.6s-.72,1.6-1.61,1.6h-3.21c-.89,0-1.61-.72-1.61-1.6s.72-1.6,1.61-1.6h3.21Zm-4.82,48.05c-3.55,0-6.43-2.87-6.43-6.41v-7.73l-.14.27c-.21.39-.57.67-1,.79-.43.11-.88.05-1.26-.18l-7.59-4.66c-1.21-.7-2.1-1.86-2.46-3.21-.36-1.36-.17-2.81.54-4.03.71-1.22,1.87-2.11,3.24-2.48,1.25-.34,2.58-.2,3.73.36l.2-.28c.71-.92,1.71-1.59,2.84-1.89.62-.17,1.27-.22,1.9-.16v-16.93s-23.4,6.27-23.4,6.27c-1.71.46-2.73,2.22-2.28,3.93l10.78,40.22c.46,1.71,2.22,2.72,3.93,2.26l22.87-6.13h-5.48Zm-6.43-26.38c-.35-.09-.72-.09-1.07,0-.46.12-.87.4-1.15.78l-.13.2-.62,1.07c-.41.71-1.28.99-2.01.68l-.18-.09-1.07-.62c-.48-.28-1.06-.35-1.6-.21-.54.15-1,.5-1.28.98-.28.48-.36,1.06-.21,1.6.12.46.4.87.8,1.16l.21.13,6.18,3.79,2.16-3.99v-5.51Z"/>
          </g>
        </g>
      </g>
    </g>
  </g>
</svg>