<?xml version="1.0" encoding="UTF-8"?>
<svg id="Layer_2" data-name="Layer 2" xmlns="http://www.w3.org/2000/svg" xmlns:xlink="http://www.w3.org/1999/xlink" viewBox="0 0 166.59 242.17">
  <defs>
    <style>
      .cls-1 {
        fill: #fff;
      }

      .cls-2 {
        fill: #fffeff;
      }

      .cls-3 {
        fill: url(#radial-gradient-3);
      }

      .cls-4 {
        fill: url(#radial-gradient-4);
      }

      .cls-5 {
        fill: url(#radial-gradient-2);
      }

      .cls-6 {
        fill: url(#radial-gradient);
      }
    </style>
    <radialGradient id="radial-gradient" cx="-1514.33" cy="-315.95" fx="-1514.33" fy="-315.95" r="7.6" gradientTransform="translate(-13953.94 4634.45) rotate(179.33) scale(9.32 -13.68)" gradientUnits="userSpaceOnUse">
      <stop offset="0" stop-color="#000"/>
      <stop offset="1" stop-color="#000" stop-opacity=".66"/>
    </radialGradient>
    <radialGradient id="radial-gradient-2" cx="1004.87" cy="-10334.4" fx="1004.87" fy="-10334.4" r="65.52" gradientTransform="translate(-1125.72 -1396.77) rotate(-32.46) scale(.31 -.19) skewX(2.58)" gradientUnits="userSpaceOnUse">
      <stop offset="0" stop-color="#fff" stop-opacity=".53"/>
      <stop offset="1" stop-color="#000" stop-opacity="0"/>
    </radialGradient>
    <radialGradient id="radial-gradient-3" cx="973.01" cy="-10356.81" fx="973.01" fy="-10356.81" r="65.52" gradientTransform="translate(-1093.85 -1442.31) rotate(-32.46) scale(.31 -.19) skewX(2.58)" gradientUnits="userSpaceOnUse">
      <stop offset="0" stop-color="#fff" stop-opacity=".52"/>
      <stop offset="1" stop-color="#000" stop-opacity="0"/>
    </radialGradient>
    <radialGradient id="radial-gradient-4" cx="2776.44" cy="-6114.92" fx="2776.44" fy="-6114.92" r="65.52" gradientTransform="translate(-795.77 -1288.35) rotate(-3.38) scale(.39 -.25) skewX(5.7)" gradientUnits="userSpaceOnUse">
      <stop offset="0" stop-color="#fff" stop-opacity=".7"/>
      <stop offset="1" stop-color="#000" stop-opacity="0"/>
    </radialGradient>
  </defs>
  <g id="svg2">
    <g>
      <g id="Layer_1-2" data-name="Layer_1">
        <path id="path5" class="cls-1" d="m166.59,236.16c0,3.3-2.7,6-6,6H5.99c-3.3,0-5.99-2.7-5.99-5.99V6C0,2.7,2.7,0,6,0h154.58c3.3,0,6,2.7,6,6v230.16Z"/>
      </g>
      <path d="m38.67,23.15c.02-.29.03-.54.05-.73.02-.2.04-.36.08-.49.04-.13.1-.23.18-.29.08-.06.21-.11.39-.15l8.45-2.03c.21-.06.42-.1.63-.1.23,0,.39.07.48.22s.13.42.13.83l-.73,7.84-.44,4.69c-.1,1.09-.2,2.15-.29,3.17s-.19,1.97-.28,2.84c-.09.87-.17,1.64-.23,2.32-.06.67-.11,1.22-.15,1.62l-.05.71c-.13,1.86-.48,3.63-1.06,5.32-.58,1.69-1.34,3.19-2.29,4.48-.95,1.29-2.08,2.32-3.39,3.09-1.31.76-2.76,1.15-4.36,1.15-.81,0-1.42-.02-1.82-.05-.4-.03-.68-.09-.85-.16-.17-.07-.28-.17-.32-.29-.04-.12-.11-.27-.21-.45l-.8-5.93s.05-.1.16-.21c.11-.11.19-.17.26-.21.59-.23,1.16-.49,1.73-.78.57-.29,1.08-.64,1.53-1.04.45-.4.81-.87,1.1-1.42.28-.54.44-1.18.48-1.92l1.64-22.05Z"/>
      <g id="g3804">
        <g id="layer1-1">
          <path id="cl" class="cls-6" d="m118.06,168.23s11.35-9.08,11.35-21.66c0-7.37-6.54-19.6-21.66-19.6s-21.66,12.24-21.66,19.6c0,12.58,11.35,21.66,11.35,21.66-12.6-9.82-35.07-3.12-35.07,16.51,0,9.82,8.03,20.63,20.63,20.63,15.12,0,21.66-16.51,21.66-16.51,0,0,1.92,18.81-9.28,28.89h24.76c-11.2-10.07-9.28-28.89-9.28-28.89,0,0,6.54,16.51,21.66,16.51,12.61,0,20.63-10.81,20.63-20.63,0-19.62-22.47-26.32-35.07-16.51Z"/>
        </g>
        <path id="path3762" class="cls-5" d="m63.2,192.62s-1.48-18.9,4.18-24.46c6.36-6.24,25.61-2.28,25.61-2.28,0,0-13.09,4.94-18.29,9.67-4.98,4.52-11.5,17.06-11.5,17.06Z"/>
        <path id="path3762-6" class="cls-3" d="m88.7,156.19s-1.48-18.9,4.18-24.46c6.36-6.24,25.61-2.28,25.61-2.28,0,0-13.09,4.94-18.29,9.67-4.98,4.52-11.5,17.06-11.5,17.06Z"/>
        <path id="path3762-7" class="cls-4" d="m106.39,190.28s11.66-22.35,21.36-25.06c10.9-3.05,27.95,13.65,27.95,13.65,0,0-16.92-2.69-25.58-.64-8.28,1.96-23.74,12.05-23.74,12.05Z"/>
      </g>
      <g id="layer1-1-4">
        <path id="cl-9" class="cls-2" d="m43.08,82.24s4.23-3.39,4.23-8.08c0-2.75-2.44-7.31-8.08-7.31s-8.08,4.57-8.08,7.31c0,4.7,4.23,8.08,4.23,8.08-4.7-3.66-13.09-1.16-13.09,6.16,0,3.67,3,7.7,7.7,7.7,5.64,0,8.08-6.16,8.08-6.16,0,0,.72,7.02-3.46,10.78h9.24c-4.18-3.76-3.46-10.78-3.46-10.78,0,0,2.44,6.16,8.08,6.16,4.7,0,7.7-4.03,7.7-7.7,0-7.32-8.38-9.82-13.09-6.16Z"/>
        <path id="cl-9-2" data-name="cl-9" d="m43.08,82.24s4.23-3.39,4.23-8.08c0-2.75-2.44-7.31-8.08-7.31s-8.08,4.57-8.08,7.31c0,4.7,4.23,8.08,4.23,8.08-4.7-3.66-13.09-1.16-13.09,6.16,0,3.67,3,7.7,7.7,7.7,5.64,0,8.08-6.16,8.08-6.16,0,0,.72,7.02-3.46,10.78h9.24c-4.18-3.76-3.46-10.78-3.46-10.78,0,0,2.44,6.16,8.08,6.16,4.7,0,7.7-4.03,7.7-7.7,0-7.32-8.38-9.82-13.09-6.16Z"/>
      </g>
    </g>
  </g>
</svg>