<?xml version="1.0" encoding="UTF-8"?>
<svg id="Layer_2" data-name="Layer 2" xmlns="http://www.w3.org/2000/svg" xmlns:xlink="http://www.w3.org/1999/xlink" viewBox="0 0 166.59 242.17">
  <defs>
    <style>
      .cls-1 {
        fill: #fff;
      }

      .cls-2 {
        fill: #df0000;
      }

      .cls-3 {
        fill: url(#radial-gradient);
      }
    </style>
    <radialGradient id="radial-gradient" cx="-1864.5" cy="-271.09" fx="-1864.5" fy="-271.09" r="6.4" gradientTransform="translate(-12334.02 3196.81) rotate(179.72) scale(6.68 -11.01)" gradientUnits="userSpaceOnUse">
      <stop offset="0" stop-color="#df0000"/>
      <stop offset="1" stop-color="#df0000" stop-opacity=".64"/>
    </radialGradient>
  </defs>
  <g id="svg2">
    <g>
      <g id="Layer_1-2" data-name="Layer_1">
        <path id="path5" class="cls-1" d="m166.59,236.17c0,3.3-2.7,6-6,6H6c-3.3,0-6-2.7-6-6V6C0,2.7,2.7,0,6,0h154.59c3.3,0,6,2.7,6,6v230.17Z"/>
      </g>
      <g id="layer1-2">
        <path id="dl" class="cls-3" d="m121.48,148.15c-10.08-13.64-15.44-27.49-15.44-27.49,0,0-5.36,13.86-15.44,27.49-10.08,13.63-22.65,22.5-22.65,22.5,0,0,12.56,8.86,22.65,22.5,10.08,13.63,15.44,27.49,15.44,27.49,0,0,5.36-13.86,15.44-27.49,10.08-13.64,22.65-22.5,22.65-22.5,0,0-12.56-8.87-22.65-22.5Z"/>
      </g>
      <g id="layer1-2-6">
        <path id="dl-6" class="cls-2" d="m44.47,77.62c-3.75-5.08-5.75-10.23-5.75-10.23,0,0-2,5.16-5.75,10.23-3.75,5.07-8.43,8.37-8.43,8.37,0,0,4.68,3.3,8.43,8.38,3.75,5.07,5.75,10.23,5.75,10.23,0,0,2-5.16,5.75-10.23,3.75-5.08,8.43-8.38,8.43-8.38,0,0-4.68-3.3-8.43-8.37Z"/>
      </g>
      <path class="cls-2" d="m38.94,25.61c.02-.29.03-.54.05-.73s.04-.36.09-.49c.04-.13.1-.23.18-.29.08-.06.21-.11.39-.15l8.45-2.03c.21-.06.42-.1.63-.1.23,0,.39.07.48.22.09.15.13.42.13.83l-.73,7.84-.44,4.69c-.1,1.09-.2,2.15-.29,3.17s-.19,1.97-.28,2.84c-.09.87-.17,1.64-.23,2.32-.07.67-.11,1.22-.15,1.62l-.05.71c-.13,1.86-.48,3.63-1.06,5.32-.58,1.69-1.34,3.19-2.29,4.48-.95,1.29-2.08,2.32-3.39,3.09-1.31.76-2.76,1.15-4.36,1.15-.81,0-1.42-.02-1.82-.05-.4-.03-.68-.09-.85-.16-.17-.07-.28-.17-.32-.29-.04-.12-.11-.27-.21-.45l-.81-5.93s.05-.1.16-.21c.11-.11.19-.17.26-.21.59-.23,1.16-.49,1.73-.78s1.08-.64,1.53-1.04c.45-.4.81-.87,1.1-1.42.28-.54.44-1.18.48-1.92l1.64-22.05Z"/>
    </g>
  </g>
</svg>