<?xml version="1.0" encoding="UTF-8"?>
<svg id="Layer_2" data-name="Layer 2" xmlns="http://www.w3.org/2000/svg" xmlns:xlink="http://www.w3.org/1999/xlink" viewBox="0 0 166.59 242.17">
  <defs>
    <style>
      .cls-1 {
        fill: #fff;
      }

      .cls-2 {
        fill: #df0000;
      }

      .cls-3 {
        fill: url(#radial-gradient-3);
      }

      .cls-4 {
        fill: url(#radial-gradient-2);
      }

      .cls-5 {
        fill: url(#radial-gradient);
      }
    </style>
    <radialGradient id="radial-gradient" cx="-1135.72" cy="-273.79" fx="-1135.72" fy="-273.79" r="6.4" gradientTransform="translate(-7646.22 3158.34) rotate(-180) scale(6.83 -10.99)" gradientUnits="userSpaceOnUse">
      <stop offset="0" stop-color="#df0000"/>
      <stop offset="1" stop-color="#df0000" stop-opacity=".67"/>
    </radialGradient>
    <radialGradient id="radial-gradient-2" cx="-84.39" cy="-7596" fx="-84.39" fy="-7596" r="65.52" gradientTransform="translate(-772.2 -1428.08) rotate(-31.19) scale(.39 -.23) skewX(1.04)" gradientUnits="userSpaceOnUse">
      <stop offset="0" stop-color="#fff" stop-opacity=".31"/>
      <stop offset="1" stop-color="#000" stop-opacity="0"/>
    </radialGradient>
    <radialGradient id="radial-gradient-3" cx="1204.96" cy="-7875.16" fx="1204.96" fy="-7875.16" r="65.52" gradientTransform="translate(-699.89 -1370.61) rotate(-23.03) scale(.32 -.22) skewX(5.07)" gradientUnits="userSpaceOnUse">
      <stop offset="0" stop-color="#fff" stop-opacity=".29"/>
      <stop offset="1" stop-color="#000" stop-opacity="0"/>
    </radialGradient>
  </defs>
  <g id="svg2">
    <g>
      <g id="Layer_1-2" data-name="Layer_1">
        <path id="path5" class="cls-1" d="m166.59,236.17c0,3.3-2.7,5.99-5.99,5.99H5.99c-3.29,0-5.99-2.69-5.99-5.99V6C0,2.7,2.7,0,6,0h154.6c3.3,0,6,2.7,6,6v230.18Z"/>
      </g>
      <path class="cls-2" d="m38.2,23.61c.02-.29.03-.54.05-.73.02-.2.04-.36.08-.49.04-.13.1-.23.18-.29.08-.06.21-.11.39-.15l8.45-2.03c.21-.06.42-.1.63-.1.23,0,.39.07.48.22s.13.42.13.83l-.73,7.84-.44,4.69c-.1,1.09-.2,2.15-.29,3.17s-.19,1.97-.28,2.84c-.09.87-.17,1.64-.23,2.32-.07.67-.11,1.22-.15,1.62l-.05.71c-.13,1.86-.48,3.63-1.06,5.32-.58,1.69-1.34,3.19-2.29,4.48-.95,1.29-2.08,2.32-3.39,3.09-1.31.76-2.76,1.15-4.36,1.15-.81,0-1.42-.02-1.82-.05-.4-.03-.68-.09-.85-.16-.17-.07-.28-.17-.32-.29-.04-.12-.11-.27-.21-.45l-.81-5.93s.05-.1.16-.21c.11-.11.19-.17.26-.21.59-.23,1.16-.49,1.73-.78.57-.29,1.08-.64,1.53-1.04.45-.4.81-.87,1.1-1.42.29-.54.44-1.18.48-1.92l1.64-22.05Z"/>
      <g id="g3036">
        <g id="layer1-9">
          <path id="hl" class="cls-5" d="m126.97,130.03c-17.71,0-20.07,17.77-20.07,17.77,0,0-2.36-17.77-20.07-17.77-12.4,0-23.61,7.97-23.61,23,0,19.86,35.93,39.83,43.68,68.99,7.38-29.14,43.68-49.13,43.68-68.99,0-15.03-11.22-23-23.61-23Z"/>
        </g>
        <path id="path3762-6-4" class="cls-4" d="m64.33,167.02s-1.89-22.99,5.34-29.74c8.13-7.59,32.73-2.77,32.73-2.77,0,0-16.72,6.01-23.38,11.76-6.36,5.49-14.69,20.75-14.69,20.75Z"/>
        <path id="path3762-6-2-3" class="cls-3" d="m106.2,160.17s3.46-21.39,10.52-25.9c7.94-5.08,26.02,4.93,26.02,4.93,0,0-13.38,4.83-19.78,8.55-6.12,3.56-16.76,12.43-16.76,12.43Z"/>
      </g>
      <g id="layer1-9-6">
        <path id="hl-8" class="cls-2" d="m46.32,68.22c-6.52,0-7.39,6.54-7.39,6.54,0,0-.87-6.54-7.39-6.54-4.56,0-8.69,2.93-8.69,8.46,0,7.31,13.22,14.66,16.07,25.39,2.72-10.72,16.07-18.08,16.07-25.39,0-5.53-4.13-8.46-8.69-8.46Z"/>
      </g>
    </g>
  </g>
</svg>