<?xml version="1.0" encoding="UTF-8"?>
<svg id="Layer_2" data-name="Layer 2" xmlns="http://www.w3.org/2000/svg" xmlns:xlink="http://www.w3.org/1999/xlink" viewBox="0 0 166.59 242.17">
  <defs>
    <style>
      .cls-1 {
        fill: #fff;
      }

      .cls-2 {
        fill: url(#radial-gradient);
      }
    </style>
    <radialGradient id="radial-gradient" cx="-1325.43" cy="-296.36" fx="-1325.43" fy="-296.36" r="6.4" gradientTransform="translate(-13194.16 4205.94) rotate(-179.22) scale(9.99 -14.29)" gradientUnits="userSpaceOnUse">
      <stop offset="0" stop-color="#000"/>
      <stop offset="1" stop-color="#000" stop-opacity=".65"/>
    </radialGradient>
  </defs>
  <g id="svg2">
    <g>
      <g id="Layer_1-2" data-name="Layer_1">
        <path id="path5" class="cls-1" d="m166.59,236.17c0,3.3-2.7,5.99-5.99,5.99H5.99c-3.29,0-5.99-2.69-5.99-5.99V6C0,2.7,2.7,0,6,0h154.6c3.3,0,6,2.7,6,6v230.18Z"/>
      </g>
      <path d="m38.2,23.61c.02-.29.03-.54.05-.73.02-.2.04-.36.08-.49.04-.13.1-.23.18-.29.08-.06.21-.11.39-.15l8.45-2.03c.21-.06.42-.1.63-.1.23,0,.39.07.48.22s.13.42.13.83l-.73,7.84-.44,4.69c-.1,1.09-.2,2.15-.29,3.17s-.19,1.97-.28,2.84c-.09.87-.17,1.64-.23,2.32-.07.67-.11,1.22-.15,1.62l-.05.71c-.13,1.86-.48,3.63-1.06,5.32-.58,1.69-1.34,3.19-2.29,4.48-.95,1.29-2.08,2.32-3.39,3.09-1.31.76-2.76,1.15-4.36,1.15-.81,0-1.42-.02-1.82-.05-.4-.03-.68-.09-.85-.16-.17-.07-.28-.17-.32-.29-.04-.12-.11-.27-.21-.45l-.81-5.93s.05-.1.16-.21c.11-.11.19-.17.26-.21.59-.23,1.16-.49,1.73-.78.57-.29,1.08-.64,1.53-1.04.45-.4.81-.87,1.1-1.42.29-.54.44-1.18.48-1.92l1.64-22.05Z"/>
      <g id="g3886">
        <g id="layer1-7-1">
          <path id="sl-5" class="cls-2" d="m147.97,188.11c-1.22-18.72-39.09-53.94-40.31-62.75-1.22,8.81-39.09,44.03-40.31,62.75-.85,13.23,8.55,18.72,17.1,18.72,9.26-.1,16.91-12.92,19.54-15.41,1.22,3.3-8.09,30.82-10.99,30.82h29.32c-2.91,0-12.21-27.52-10.99-30.82,2.31,2.29,9.07,15.03,19.55,15.41,8.55,0,17.95-5.48,17.09-18.72Z"/>
        </g>
      </g>
      <g id="layer1-7">
        <path id="sl" d="m53.14,88.96c-.44-6.72-14.02-19.35-14.46-22.52-.44,3.16-14.02,15.8-14.46,22.52-.31,4.75,3.07,6.72,6.14,6.72,3.32-.04,6.07-4.64,7.01-5.53.44,1.19-2.9,11.06-3.94,11.06h10.52c-1.04,0-4.38-9.87-3.94-11.06.83.82,3.25,5.39,7.01,5.53,3.07,0,6.44-1.97,6.13-6.72Z"/>
      </g>
    </g>
  </g>
</svg>