<?xml version="1.0" encoding="UTF-8"?>
<svg id="Layer_2" data-name="Layer 2" xmlns="http://www.w3.org/2000/svg" xmlns:xlink="http://www.w3.org/1999/xlink" viewBox="0 0 166.59 242.17">
  <defs>
    <style>
      .cls-1 {
        fill: #fff;
      }

      .cls-2 {
        fill: #fffeff;
      }

      .cls-3 {
        fill: url(#radial-gradient-3);
      }

      .cls-4 {
        fill: url(#radial-gradient-4);
      }

      .cls-5 {
        fill: url(#radial-gradient-2);
      }

      .cls-6 {
        fill: url(#radial-gradient);
      }
    </style>
    <radialGradient id="radial-gradient" cx="-1509.36" cy="237.22" fx="-1509.36" fy="237.22" r="7.6" gradientTransform="translate(-13996.28 -2934.26) rotate(179.33) scale(9.32 -13.68)" gradientUnits="userSpaceOnUse">
      <stop offset="0" stop-color="#000"/>
      <stop offset="1" stop-color="#000" stop-opacity=".66"/>
    </radialGradient>
    <radialGradient id="radial-gradient-2" cx="1901.56" cy="-7076.88" fx="1901.56" fy="-7076.88" r="65.52" gradientTransform="translate(-1068.04 -698.81) rotate(-32.46) scale(.31 -.19) skewX(2.58)" gradientUnits="userSpaceOnUse">
      <stop offset="0" stop-color="#fff" stop-opacity=".53"/>
      <stop offset="1" stop-color="#000" stop-opacity="0"/>
    </radialGradient>
    <radialGradient id="radial-gradient-3" cx="1869.7" cy="-7099.28" fx="1869.7" fy="-7099.28" r="65.52" gradientTransform="translate(-1036.17 -744.35) rotate(-32.46) scale(.31 -.19) skewX(2.58)" gradientUnits="userSpaceOnUse">
      <stop offset="0" stop-color="#fff" stop-opacity=".52"/>
      <stop offset="1" stop-color="#000" stop-opacity="0"/>
    </radialGradient>
    <radialGradient id="radial-gradient-4" cx="2616.72" cy="-3093.39" fx="2616.72" fy="-3093.39" r="65.52" gradientTransform="translate(-807.1 -543.64) rotate(-3.38) scale(.39 -.25) skewX(5.7)" gradientUnits="userSpaceOnUse">
      <stop offset="0" stop-color="#fff" stop-opacity=".7"/>
      <stop offset="1" stop-color="#000" stop-opacity="0"/>
    </radialGradient>
  </defs>
  <g id="svg2">
    <g>
      <g id="Layer_1-2" data-name="Layer_1">
        <path id="path5" class="cls-1" d="m166.59,236.16c0,3.3-2.7,6-6,6H5.99c-3.3,0-5.99-2.7-5.99-5.99V6C0,2.7,2.7,0,6,0h154.58c3.3,0,6,2.7,6,6v230.16Z"/>
      </g>
      <path d="m37.58,21.36c-.03.24-.07.63-.1,1.16-.03.53-.08,1.14-.13,1.82-.06.68-.11,1.41-.16,2.18-.05.77-.1,1.52-.16,2.25-.06.72-.11,1.39-.17,1.99-.06.6-.1,1.08-.13,1.44l1.25-1.27,3.47-4.3c.42-.54.85-1.06,1.27-1.58.42-.51.8-.98,1.14-1.39.33-.42.61-.76.82-1.04.21-.28.33-.43.37-.46l10.84-.9s.11-.02.22-.02h.2c.37,0,.56.1.56.29,0,.11-.05.25-.16.4-.11.16-.27.35-.48.6-.26.31-.64.75-1.13,1.33-.5.58-1.04,1.21-1.62,1.9-.59.69-1.19,1.41-1.82,2.15-.63.74-1.21,1.42-1.75,2.05-.54.63-1,1.17-1.38,1.62-.38.46-.62.75-.72.88l-1.54,1.46c-1.04.99-2.38,2.23-4,3.71.5.52,1.04,1.09,1.62,1.7.58.61,1.13,1.2,1.66,1.76.53.56,1.01,1.07,1.44,1.53.43.46.75.8.96,1.03l7.54,8.74c.08.1.19.18.32.24.13.07.26.12.39.17s.24.1.33.16c.09.06.13.13.13.21,0,.1-.11.25-.32.46-.13.13-.37.32-.73.57-.36.25-.78.53-1.26.82-.48.29-1,.59-1.55.9-.55.31-1.09.59-1.6.84-.51.25-.98.46-1.42.62-.43.16-.76.24-.99.24-.34,0-.7-.15-1.07-.45-.38-.3-.82-.76-1.34-1.37-.52-.61-1.14-1.39-1.86-2.33-.72-.94-1.58-2.05-2.59-3.32-.59-.73-1.16-1.45-1.71-2.16-.55-.71-1.07-1.38-1.56-2-.49-.63-.93-1.19-1.33-1.68-.4-.5-.73-.9-.99-1.21-.13.13-.27.26-.42.38-.15.12-.29.25-.42.38l-.85,10.47c-.02.15-.04.29-.08.44-.04.15-.15.25-.33.32l-6.91,2.49c-.18.06-.42.15-.71.24s-.58.15-.85.15c-.24,0-.45-.07-.61-.2-.16-.13-.24-.37-.24-.71.08-.96.18-2.21.3-3.74.12-1.53.25-3.28.39-5.24.14-1.96.29-4.1.44-6.42.15-2.32.32-4.76.5-7.31l.68-10.28c.02-.29.03-.54.05-.73s.04-.36.07-.49c.03-.13.09-.23.17-.29.08-.06.2-.11.37-.15l8.45-2.03c.21-.06.43-.1.66-.1s.38.07.46.21c.08.14.12.42.12.84Z"/>
      <g id="g3804">
        <g id="layer1-1">
          <path id="cl" class="cls-6" d="m118.06,168.23s11.35-9.08,11.35-21.66c0-7.37-6.54-19.6-21.66-19.6s-21.66,12.24-21.66,19.6c0,12.58,11.35,21.66,11.35,21.66-12.6-9.82-35.07-3.12-35.07,16.51,0,9.82,8.03,20.63,20.63,20.63,15.12,0,21.66-16.51,21.66-16.51,0,0,1.92,18.81-9.28,28.89h24.76c-11.2-10.07-9.28-28.89-9.28-28.89,0,0,6.54,16.51,21.66,16.51,12.61,0,20.63-10.81,20.63-20.63,0-19.62-22.47-26.32-35.07-16.51Z"/>
        </g>
        <path id="path3762" class="cls-5" d="m63.2,192.62s-1.48-18.9,4.18-24.46c6.36-6.24,25.61-2.28,25.61-2.28,0,0-13.09,4.94-18.29,9.67-4.98,4.52-11.5,17.06-11.5,17.06Z"/>
        <path id="path3762-6" class="cls-3" d="m88.7,156.19s-1.48-18.9,4.18-24.46c6.36-6.24,25.61-2.28,25.61-2.28,0,0-13.09,4.94-18.29,9.67-4.98,4.52-11.5,17.06-11.5,17.06Z"/>
        <path id="path3762-7" class="cls-4" d="m106.39,190.28s11.66-22.35,21.36-25.06c10.9-3.05,27.95,13.65,27.95,13.65,0,0-16.92-2.69-25.58-.64-8.28,1.96-23.74,12.05-23.74,12.05Z"/>
      </g>
      <g id="layer1-1-4">
        <path id="cl-9" class="cls-2" d="m43.08,82.24s4.23-3.39,4.23-8.08c0-2.75-2.44-7.31-8.08-7.31s-8.08,4.57-8.08,7.31c0,4.7,4.23,8.08,4.23,8.08-4.7-3.66-13.09-1.16-13.09,6.16,0,3.67,3,7.7,7.7,7.7,5.64,0,8.08-6.16,8.08-6.16,0,0,.72,7.02-3.46,10.78h9.24c-4.18-3.76-3.46-10.78-3.46-10.78,0,0,2.44,6.16,8.08,6.16,4.7,0,7.7-4.03,7.7-7.7,0-7.32-8.38-9.82-13.09-6.16Z"/>
        <path id="cl-9-2" data-name="cl-9" d="m43.08,82.24s4.23-3.39,4.23-8.08c0-2.75-2.44-7.31-8.08-7.31s-8.08,4.57-8.08,7.31c0,4.7,4.23,8.08,4.23,8.08-4.7-3.66-13.09-1.16-13.09,6.16,0,3.67,3,7.7,7.7,7.7,5.64,0,8.08-6.16,8.08-6.16,0,0,.72,7.02-3.46,10.78h9.24c-4.18-3.76-3.46-10.78-3.46-10.78,0,0,2.44,6.16,8.08,6.16,4.7,0,7.7-4.03,7.7-7.7,0-7.32-8.38-9.82-13.09-6.16Z"/>
      </g>
    </g>
  </g>
</svg>