<?xml version="1.0" encoding="UTF-8"?>
<svg id="Layer_2" data-name="Layer 2" xmlns="http://www.w3.org/2000/svg" xmlns:xlink="http://www.w3.org/1999/xlink" viewBox="0 0 166.59 242.17">
  <defs>
    <style>
      .cls-1 {
        fill: #fff;
      }

      .cls-2 {
        fill: #df0000;
      }

      .cls-3 {
        fill: url(#radial-gradient);
      }
    </style>
    <radialGradient id="radial-gradient" cx="-1859" cy="271.5" fx="-1859" fy="271.5" r="6.4" gradientTransform="translate(-12326.62 -2778.24) rotate(179.72) scale(6.68 -11.01)" gradientUnits="userSpaceOnUse">
      <stop offset="0" stop-color="#df0000"/>
      <stop offset="1" stop-color="#df0000" stop-opacity=".64"/>
    </radialGradient>
  </defs>
  <g id="svg2">
    <g>
      <g id="Layer_1-2" data-name="Layer_1">
        <path id="path5" class="cls-1" d="m166.59,236.17c0,3.3-2.7,6-6,6H6c-3.3,0-6-2.7-6-6V6C0,2.7,2.7,0,6,0h154.59c3.3,0,6,2.7,6,6v230.17Z"/>
      </g>
      <g id="layer1-2">
        <path id="dl" class="cls-3" d="m121.48,148.15c-10.08-13.64-15.44-27.49-15.44-27.49,0,0-5.36,13.86-15.44,27.49-10.08,13.63-22.65,22.5-22.65,22.5,0,0,12.56,8.86,22.65,22.5,10.08,13.63,15.44,27.49,15.44,27.49,0,0,5.36-13.86,15.44-27.49,10.08-13.64,22.65-22.5,22.65-22.5,0,0-12.56-8.87-22.65-22.5Z"/>
      </g>
      <g id="layer1-2-6">
        <path id="dl-6" class="cls-2" d="m44.47,74.62c-3.75-5.08-5.75-10.23-5.75-10.23,0,0-2,5.16-5.75,10.23-3.75,5.07-8.43,8.37-8.43,8.37,0,0,4.68,3.3,8.43,8.38,3.75,5.07,5.75,10.23,5.75,10.23,0,0,2-5.16,5.75-10.23,3.75-5.08,8.43-8.38,8.43-8.38,0,0-4.68-3.3-8.43-8.37Z"/>
      </g>
      <path class="cls-2" d="m37.85,23.83c-.03.24-.07.63-.1,1.16-.03.53-.08,1.14-.13,1.82s-.11,1.41-.16,2.18c-.05.77-.1,1.52-.16,2.25-.06.72-.11,1.39-.17,1.99-.06.6-.1,1.08-.13,1.44l1.25-1.27,3.47-4.3c.42-.54.85-1.06,1.27-1.58.42-.51.8-.98,1.13-1.39.33-.42.61-.76.82-1.04.21-.28.33-.43.37-.46l10.84-.9s.11-.02.22-.02h.2c.37,0,.56.1.56.29,0,.11-.05.25-.16.4-.11.16-.26.35-.48.6-.26.31-.64.75-1.14,1.33-.5.58-1.04,1.21-1.62,1.9-.59.69-1.19,1.41-1.82,2.15-.63.74-1.21,1.42-1.75,2.05-.54.63-1,1.17-1.38,1.62-.38.46-.62.75-.72.88l-1.54,1.46c-1.04.99-2.38,2.23-4,3.71.5.52,1.04,1.09,1.62,1.7.58.61,1.13,1.2,1.66,1.76.53.56,1.01,1.07,1.44,1.53.43.46.75.8.96,1.03l7.54,8.74c.08.1.19.18.32.24.13.07.26.12.39.17.13.05.24.1.33.16.09.06.13.13.13.21,0,.1-.11.25-.32.46-.13.13-.38.32-.73.57-.36.25-.78.53-1.26.82s-1,.59-1.55.9c-.55.31-1.09.59-1.6.84-.51.25-.98.46-1.42.62-.43.16-.76.24-.99.24-.34,0-.7-.15-1.07-.45-.38-.3-.82-.76-1.34-1.37-.52-.61-1.14-1.39-1.86-2.33-.72-.94-1.58-2.05-2.59-3.32-.59-.73-1.16-1.45-1.71-2.16-.55-.71-1.07-1.38-1.56-2-.49-.63-.93-1.19-1.33-1.68-.4-.5-.73-.9-.99-1.21-.13.13-.27.26-.42.38-.15.12-.29.25-.42.38l-.85,10.47c-.02.15-.04.29-.09.44s-.15.25-.33.32l-6.91,2.49c-.18.06-.42.15-.71.24s-.58.15-.85.15c-.24,0-.45-.07-.61-.2-.16-.13-.24-.37-.24-.71.08-.96.18-2.21.3-3.74.12-1.53.25-3.28.39-5.24.14-1.96.29-4.1.44-6.42.15-2.32.32-4.76.5-7.31l.68-10.28c.02-.29.03-.54.05-.73.02-.2.04-.36.07-.49.03-.13.09-.23.17-.29.08-.06.2-.11.37-.15l8.45-2.03c.21-.06.43-.1.66-.1s.38.07.46.21c.08.14.12.42.12.84Z"/>
    </g>
  </g>
</svg>