<?xml version="1.0" encoding="UTF-8"?>
<svg id="Layer_2" data-name="Layer 2" xmlns="http://www.w3.org/2000/svg" xmlns:xlink="http://www.w3.org/1999/xlink" viewBox="0 0 166.59 242.17">
  <defs>
    <style>
      .cls-1 {
        fill: #fff;
      }

      .cls-2 {
        fill: url(#radial-gradient);
      }
    </style>
    <radialGradient id="radial-gradient" cx="-1318.93" cy="258.66" fx="-1318.93" fy="258.66" r="6.4" gradientTransform="translate(-13021.74 -3722.43) rotate(-179.22) scale(9.99 -14.29)" gradientUnits="userSpaceOnUse">
      <stop offset="0" stop-color="#000"/>
      <stop offset="1" stop-color="#000" stop-opacity=".65"/>
    </radialGradient>
  </defs>
  <g id="svg2">
    <g>
      <g id="Layer_1-2" data-name="Layer_1">
        <path id="path5" class="cls-1" d="m166.59,236.17c0,3.3-2.7,5.99-5.99,5.99H5.99c-3.29,0-5.99-2.69-5.99-5.99V6C0,2.7,2.7,0,6,0h154.6c3.3,0,6,2.7,6,6v230.18Z"/>
      </g>
      <path d="m37.11,21.83c-.03.24-.07.63-.1,1.16-.03.53-.08,1.14-.13,1.82-.06.68-.11,1.41-.16,2.18-.05.77-.1,1.52-.16,2.25-.06.72-.11,1.39-.17,1.99-.06.6-.1,1.08-.13,1.44l1.25-1.27,3.47-4.3c.42-.54.85-1.06,1.27-1.58.42-.51.8-.98,1.14-1.39.33-.42.61-.76.82-1.04.21-.28.33-.43.37-.46l10.84-.9s.11-.02.22-.02h.2c.37,0,.56.1.56.29,0,.11-.05.25-.16.4-.11.16-.26.35-.48.6-.26.31-.64.75-1.13,1.33-.5.58-1.04,1.21-1.62,1.9-.59.69-1.19,1.41-1.82,2.15-.63.74-1.21,1.42-1.75,2.05-.54.63-1,1.17-1.38,1.62-.38.46-.62.75-.72.88l-1.54,1.46c-1.04.99-2.38,2.23-4,3.71.5.52,1.05,1.09,1.62,1.7.58.61,1.13,1.2,1.66,1.76.53.56,1.01,1.07,1.44,1.53.43.46.75.8.96,1.03l7.54,8.74c.08.1.19.18.32.24.13.07.26.12.39.17s.24.1.33.16c.09.06.13.13.13.21,0,.1-.11.25-.32.46-.13.13-.37.32-.73.57-.36.25-.78.53-1.26.82-.48.29-1,.59-1.55.9-.55.31-1.09.59-1.6.84-.51.25-.99.46-1.42.62-.43.16-.76.24-.99.24-.34,0-.7-.15-1.07-.45-.37-.3-.82-.76-1.34-1.37-.52-.61-1.14-1.39-1.86-2.33-.72-.94-1.58-2.05-2.59-3.32-.59-.73-1.16-1.45-1.71-2.16-.55-.71-1.07-1.38-1.56-2-.49-.63-.93-1.19-1.33-1.68-.4-.5-.73-.9-.99-1.21-.13.13-.27.26-.42.38-.15.12-.29.25-.42.38l-.85,10.47c-.02.15-.04.29-.08.44-.04.15-.15.25-.33.32l-6.91,2.49c-.18.06-.42.15-.71.24s-.58.15-.85.15c-.24,0-.45-.07-.61-.2-.16-.13-.24-.37-.24-.71.08-.96.18-2.21.31-3.74.12-1.53.25-3.28.39-5.24.14-1.96.28-4.1.44-6.42.15-2.32.32-4.76.5-7.31l.68-10.28c.02-.29.03-.54.05-.73s.04-.36.07-.49c.03-.13.09-.23.17-.29.08-.06.2-.11.37-.15l8.45-2.03c.21-.06.43-.1.66-.1s.38.07.46.21c.08.14.12.42.12.84Z"/>
      <g id="g3886">
        <g id="layer1-7-1">
          <path id="sl-5" class="cls-2" d="m147.97,188.11c-1.22-18.72-39.09-53.94-40.31-62.75-1.22,8.81-39.09,44.03-40.31,62.75-.85,13.23,8.55,18.72,17.1,18.72,9.26-.1,16.91-12.92,19.54-15.41,1.22,3.3-8.09,30.82-10.99,30.82h29.32c-2.91,0-12.21-27.52-10.99-30.82,2.31,2.29,9.07,15.03,19.55,15.41,8.55,0,17.95-5.48,17.09-18.72Z"/>
        </g>
      </g>
      <g id="layer1-7">
        <path id="sl" d="m53.14,88.96c-.44-6.72-14.02-19.35-14.46-22.52-.44,3.16-14.02,15.8-14.46,22.52-.31,4.75,3.07,6.72,6.14,6.72,3.32-.04,6.07-4.64,7.01-5.53.44,1.19-2.9,11.06-3.94,11.06h10.52c-1.04,0-4.38-9.87-3.94-11.06.83.82,3.25,5.39,7.01,5.53,3.07,0,6.44-1.97,6.13-6.72Z"/>
      </g>
    </g>
  </g>
</svg>