<?xml version="1.0" encoding="UTF-8"?>
<svg id="Layer_2" data-name="Layer 2" xmlns="http://www.w3.org/2000/svg" xmlns:xlink="http://www.w3.org/1999/xlink" viewBox="0 0 166.59 242.17">
  <defs>
    <style>
      .cls-1 {
        fill: #fff;
      }

      .cls-2 {
        fill: #fffeff;
      }

      .cls-3 {
        fill: url(#radial-gradient-3);
      }

      .cls-4 {
        fill: url(#radial-gradient-4);
      }

      .cls-5 {
        fill: url(#radial-gradient-2);
      }

      .cls-6 {
        fill: url(#radial-gradient);
      }
    </style>
    <radialGradient id="radial-gradient" cx="-1510.32" cy="-50.59" fx="-1510.32" fy="-50.59" r="7.6" gradientTransform="translate(-13959.11 1003.51) rotate(179.33) scale(9.32 -13.68)" gradientUnits="userSpaceOnUse">
      <stop offset="0" stop-color="#000"/>
      <stop offset="1" stop-color="#000" stop-opacity=".66"/>
    </radialGradient>
    <radialGradient id="radial-gradient-2" cx="1432.34" cy="-8767.6" fx="1432.34" fy="-8767.6" r="65.52" gradientTransform="translate(-1096.97 -1061.71) rotate(-32.46) scale(.31 -.19) skewX(2.58)" gradientUnits="userSpaceOnUse">
      <stop offset="0" stop-color="#fff" stop-opacity=".53"/>
      <stop offset="1" stop-color="#000" stop-opacity="0"/>
    </radialGradient>
    <radialGradient id="radial-gradient-3" cx="1400.48" cy="-8790.01" fx="1400.48" fy="-8790.01" r="65.52" gradientTransform="translate(-1065.1 -1107.25) rotate(-32.46) scale(.31 -.19) skewX(2.58)" gradientUnits="userSpaceOnUse">
      <stop offset="0" stop-color="#fff" stop-opacity=".52"/>
      <stop offset="1" stop-color="#000" stop-opacity="0"/>
    </radialGradient>
    <radialGradient id="radial-gradient-4" cx="2697.49" cy="-4665.12" fx="2697.49" fy="-4665.12" r="65.52" gradientTransform="translate(-800.31 -931.07) rotate(-3.38) scale(.39 -.25) skewX(5.7)" gradientUnits="userSpaceOnUse">
      <stop offset="0" stop-color="#fff" stop-opacity=".7"/>
      <stop offset="1" stop-color="#000" stop-opacity="0"/>
    </radialGradient>
  </defs>
  <g id="svg2">
    <g>
      <g id="Layer_1-2" data-name="Layer_1">
        <path id="path5" class="cls-1" d="m166.59,236.16c0,3.3-2.7,6-6,6H5.99c-3.3,0-5.99-2.7-5.99-5.99V6C0,2.7,2.7,0,6,0h154.58c3.3,0,6,2.7,6,6v230.16Z"/>
      </g>
      <path d="m39.92,57.57c-2.44,0-4.62-.46-6.54-1.37-1.92-.91-3.54-2.14-4.87-3.7-1.33-1.55-2.34-3.35-3.05-5.39-.71-2.04-1.06-4.2-1.06-6.48,0-2.55.36-4.91,1.09-7.07.72-2.16,1.74-4.07,3.04-5.74,1.3-1.67,2.85-3.08,4.65-4.22,1.8-1.15,3.77-2,5.92-2.55.2,0,.34-.13.43-.38.09-.25.17-.54.24-.88.07-.33.15-.65.22-.96.07-.31.19-.53.35-.66,5.73.78,9.56,1.67,11.5,2.66,1.03.52,1.92,1.03,2.67,1.54.76.5,1.44,1.06,2.04,1.66s1.15,1.29,1.64,2.08.98,1.72,1.46,2.81c.5,1.14.88,2.56,1.12,4.25l.02.29c.08.62.15,1.28.2,1.98.05.7.07,1.44.07,2.22,0,2.82-.46,5.36-1.38,7.63-.92,2.27-2.19,4.27-3.82,5.99.44.47.85.92,1.22,1.34.38.42.7.81.98,1.15.28.34.5.64.66.89.16.25.24.44.24.55,0,.18-.14.39-.43.65-.29.25-.64.52-1.07.82s-.9.59-1.4.88c-.5.29-.98.55-1.42.78-.44.23-.81.42-1.12.56-.31.15-.48.22-.51.22-.13,0-.25-.04-.35-.11-.11-.07-.2-.15-.28-.23l-3-3c-1.38.57-2.8,1.01-4.25,1.33-1.45.32-2.99.48-4.61.48h-.59Zm-4.64-17.92c0,1.12.11,2.24.32,3.36.21,1.11.57,2.16,1.07,3.14.02.02.03.03.03.05.59.99,1.36,1.8,2.33,2.42.97.62,2.18.93,3.65.93l.49-.05-.29-.34c-.37-.42-.68-.8-.93-1.12-.24-.33-.37-.57-.37-.73,0-.31.23-.59.68-.83l5.69-2.86c.1-.05.18-.07.24-.07.13,0,.29.11.46.34.18.23.43.51.76.85.46-1.07.78-2.26.98-3.55.2-1.29.29-2.53.29-3.7,0-1.76-.31-3.32-.94-4.7-.63-1.38-1.71-2.53-3.26-3.45-.52-.31-1.08-.53-1.67-.66-.59-.13-1.25-.2-1.96-.2s-1.37.13-1.95.38c-.59.25-1.12.57-1.6.96s-.92.82-1.31,1.28c-.39.46-.73.9-1.03,1.31-.31.42-.57.94-.78,1.56-.21.62-.39,1.26-.52,1.93-.14.67-.24,1.33-.29,2-.06.67-.08,1.25-.08,1.76Z"/>
      <g id="g3804">
        <g id="layer1-1">
          <path id="cl" class="cls-6" d="m118.06,168.23s11.35-9.08,11.35-21.66c0-7.37-6.54-19.6-21.66-19.6s-21.66,12.24-21.66,19.6c0,12.58,11.35,21.66,11.35,21.66-12.6-9.82-35.07-3.12-35.07,16.51,0,9.82,8.03,20.63,20.63,20.63,15.12,0,21.66-16.51,21.66-16.51,0,0,1.92,18.81-9.28,28.89h24.76c-11.2-10.07-9.28-28.89-9.28-28.89,0,0,6.54,16.51,21.66,16.51,12.61,0,20.63-10.81,20.63-20.63,0-19.62-22.47-26.32-35.07-16.51Z"/>
        </g>
        <path id="path3762" class="cls-5" d="m63.2,192.62s-1.48-18.9,4.18-24.46c6.36-6.24,25.61-2.28,25.61-2.28,0,0-13.09,4.94-18.29,9.67-4.98,4.52-11.5,17.06-11.5,17.06Z"/>
        <path id="path3762-6" class="cls-3" d="m88.7,156.19s-1.48-18.9,4.18-24.46c6.36-6.24,25.61-2.28,25.61-2.28,0,0-13.09,4.94-18.29,9.67-4.98,4.52-11.5,17.06-11.5,17.06Z"/>
        <path id="path3762-7" class="cls-4" d="m106.39,190.28s11.66-22.35,21.36-25.06c10.9-3.05,27.95,13.65,27.95,13.65,0,0-16.92-2.69-25.58-.64-8.28,1.96-23.74,12.05-23.74,12.05Z"/>
      </g>
      <g id="layer1-1-4">
        <path id="cl-9" class="cls-2" d="m43.08,82.24s4.23-3.39,4.23-8.08c0-2.75-2.44-7.31-8.08-7.31s-8.08,4.57-8.08,7.31c0,4.7,4.23,8.08,4.23,8.08-4.7-3.66-13.09-1.16-13.09,6.16,0,3.67,3,7.7,7.7,7.7,5.64,0,8.08-6.16,8.08-6.16,0,0,.72,7.02-3.46,10.78h9.24c-4.18-3.76-3.46-10.78-3.46-10.78,0,0,2.44,6.16,8.08,6.16,4.7,0,7.7-4.03,7.7-7.7,0-7.32-8.38-9.82-13.09-6.16Z"/>
        <path id="cl-9-2" data-name="cl-9" d="m43.08,82.24s4.23-3.39,4.23-8.08c0-2.75-2.44-7.31-8.08-7.31s-8.08,4.57-8.08,7.31c0,4.7,4.23,8.08,4.23,8.08-4.7-3.66-13.09-1.16-13.09,6.16,0,3.67,3,7.7,7.7,7.7,5.64,0,8.08-6.16,8.08-6.16,0,0,.72,7.02-3.46,10.78h9.24c-4.18-3.76-3.46-10.78-3.46-10.78,0,0,2.44,6.16,8.08,6.16,4.7,0,7.7-4.03,7.7-7.7,0-7.32-8.38-9.82-13.09-6.16Z"/>
      </g>
    </g>
  </g>
</svg>