<?xml version="1.0" encoding="UTF-8"?>
<svg id="Layer_2" data-name="Layer 2" xmlns="http://www.w3.org/2000/svg" xmlns:xlink="http://www.w3.org/1999/xlink" viewBox="0 0 166.59 242.17">
  <defs>
    <style>
      .cls-1 {
        fill: #fff;
      }

      .cls-2 {
        fill: #df0000;
      }

      .cls-3 {
        fill: url(#radial-gradient);
      }
    </style>
    <radialGradient id="radial-gradient" cx="-1860.18" cy="-10.81" fx="-1860.18" fy="-10.81" r="6.4" gradientTransform="translate(-12319.2 330.48) rotate(179.72) scale(6.68 -11.01)" gradientUnits="userSpaceOnUse">
      <stop offset="0" stop-color="#df0000"/>
      <stop offset="1" stop-color="#df0000" stop-opacity=".64"/>
    </radialGradient>
  </defs>
  <g id="svg2">
    <g>
      <g id="Layer_1-2" data-name="Layer_1">
        <path id="path5" class="cls-1" d="m166.59,236.17c0,3.3-2.7,6-6,6H6c-3.3,0-6-2.7-6-6V6C0,2.7,2.7,0,6,0h154.59c3.3,0,6,2.7,6,6v230.17Z"/>
      </g>
      <g id="layer1-2">
        <path id="dl" class="cls-3" d="m121.48,148.15c-10.08-13.64-15.44-27.49-15.44-27.49,0,0-5.36,13.86-15.44,27.49-10.08,13.63-22.65,22.5-22.65,22.5,0,0,12.56,8.86,22.65,22.5,10.08,13.63,15.44,27.49,15.44,27.49,0,0,5.36-13.86,15.44-27.49,10.08-13.64,22.65-22.5,22.65-22.5,0,0-12.56-8.87-22.65-22.5Z"/>
      </g>
      <g id="layer1-2-6">
        <path id="dl-6" class="cls-2" d="m44.47,76.62c-3.75-5.08-5.75-10.23-5.75-10.23,0,0-2,5.16-5.75,10.23-3.75,5.07-8.43,8.37-8.43,8.37,0,0,4.68,3.3,8.43,8.38,3.75,5.07,5.75,10.23,5.75,10.23,0,0,2-5.16,5.75-10.23,3.75-5.08,8.43-8.38,8.43-8.38,0,0-4.68-3.3-8.43-8.37Z"/>
      </g>
      <path class="cls-2" d="m38.19,60.03c-2.44,0-4.62-.46-6.54-1.37s-3.54-2.14-4.87-3.7c-1.33-1.55-2.34-3.35-3.05-5.39-.71-2.04-1.06-4.2-1.06-6.48,0-2.55.36-4.91,1.09-7.07.72-2.16,1.74-4.07,3.04-5.74,1.3-1.67,2.85-3.08,4.65-4.22,1.8-1.15,3.77-2,5.92-2.55.2,0,.34-.13.43-.38.09-.25.17-.54.24-.88.07-.33.15-.65.22-.96.07-.31.19-.53.35-.66,5.73.78,9.56,1.67,11.5,2.66,1.03.52,1.92,1.03,2.67,1.54.76.5,1.44,1.06,2.04,1.66.6.6,1.15,1.29,1.64,2.08s.98,1.72,1.46,2.81c.5,1.14.88,2.56,1.12,4.25l.02.29c.08.62.15,1.28.2,1.98.05.7.07,1.44.07,2.22,0,2.82-.46,5.36-1.38,7.63-.92,2.27-2.19,4.27-3.82,5.99.44.47.85.92,1.22,1.34.37.42.7.81.98,1.15s.5.64.66.89c.16.25.24.44.24.55,0,.18-.14.39-.43.65-.29.25-.64.52-1.07.82-.43.29-.9.59-1.4.88s-.98.55-1.42.78c-.44.23-.81.42-1.12.56s-.48.22-.51.22c-.13,0-.25-.04-.35-.11-.11-.07-.2-.15-.28-.23l-3-3c-1.38.57-2.8,1.01-4.25,1.33-1.45.32-2.99.48-4.61.48h-.59Zm-4.64-17.92c0,1.12.11,2.24.32,3.36.21,1.11.57,2.16,1.07,3.14.02.02.02.03.02.05.59.99,1.36,1.8,2.33,2.42.97.62,2.18.93,3.65.93l.49-.05-.29-.34c-.37-.42-.68-.8-.93-1.12-.24-.33-.37-.57-.37-.73,0-.31.23-.59.68-.83l5.69-2.86c.1-.05.18-.07.24-.07.13,0,.29.11.46.34.18.23.43.51.76.85.46-1.07.78-2.26.98-3.55.2-1.29.29-2.53.29-3.7,0-1.76-.31-3.32-.94-4.7-.63-1.38-1.71-2.53-3.26-3.45-.52-.31-1.08-.53-1.67-.66-.59-.13-1.25-.2-1.97-.2s-1.37.13-1.95.38c-.59.25-1.12.57-1.6.96-.48.39-.92.82-1.31,1.28-.39.46-.73.9-1.03,1.31-.31.42-.57.94-.78,1.56-.21.62-.39,1.26-.52,1.93-.14.67-.24,1.33-.29,2-.06.67-.09,1.25-.09,1.76Z"/>
    </g>
  </g>
</svg>