<?xml version="1.0" encoding="UTF-8"?>
<svg id="Layer_2" data-name="Layer 2" xmlns="http://www.w3.org/2000/svg" xmlns:xlink="http://www.w3.org/1999/xlink" viewBox="0 0 166.59 242.17">
  <defs>
    <style>
      .cls-1 {
        fill: #fff;
      }

      .cls-2 {
        fill: #df0000;
      }

      .cls-3 {
        fill: url(#radial-gradient-3);
      }

      .cls-4 {
        fill: url(#radial-gradient-2);
      }

      .cls-5 {
        fill: url(#radial-gradient);
      }
    </style>
    <radialGradient id="radial-gradient" cx="-1131.2" cy="-13.57" fx="-1131.2" fy="-13.57" r="6.4" gradientTransform="translate(-7615.34 298.78) rotate(-180) scale(6.83 -10.99)" gradientUnits="userSpaceOnUse">
      <stop offset="0" stop-color="#df0000"/>
      <stop offset="1" stop-color="#df0000" stop-opacity=".67"/>
    </radialGradient>
    <radialGradient id="radial-gradient-2" cx="268.29" cy="-6257.12" fx="268.29" fy="-6257.12" r="65.52" gradientTransform="translate(-736.56 -1082.48) rotate(-31.19) scale(.39 -.23) skewX(1.04)" gradientUnits="userSpaceOnUse">
      <stop offset="0" stop-color="#fff" stop-opacity=".31"/>
      <stop offset="1" stop-color="#000" stop-opacity="0"/>
    </radialGradient>
    <radialGradient id="radial-gradient-3" cx="1440.04" cy="-6367.64" fx="1440.04" fy="-6367.64" r="65.52" gradientTransform="translate(-680.26 -1023.49) rotate(-23.03) scale(.32 -.22) skewX(5.07)" gradientUnits="userSpaceOnUse">
      <stop offset="0" stop-color="#fff" stop-opacity=".29"/>
      <stop offset="1" stop-color="#000" stop-opacity="0"/>
    </radialGradient>
  </defs>
  <g id="svg2">
    <g>
      <g id="Layer_1-2" data-name="Layer_1">
        <path id="path5" class="cls-1" d="m166.59,236.17c0,3.3-2.7,5.99-5.99,5.99H5.99c-3.29,0-5.99-2.69-5.99-5.99V6C0,2.7,2.7,0,6,0h154.6c3.3,0,6,2.7,6,6v230.18Z"/>
      </g>
      <path class="cls-2" d="m39.45,58.04c-2.44,0-4.62-.46-6.54-1.37-1.92-.91-3.54-2.14-4.87-3.7-1.33-1.55-2.34-3.35-3.05-5.39-.71-2.04-1.06-4.2-1.06-6.48,0-2.55.36-4.91,1.09-7.07.72-2.16,1.74-4.07,3.04-5.74,1.3-1.67,2.85-3.08,4.65-4.22,1.8-1.15,3.77-2,5.92-2.55.2,0,.34-.13.43-.38.09-.25.17-.54.24-.88.07-.33.15-.65.22-.96.07-.31.19-.53.35-.66,5.73.78,9.56,1.67,11.5,2.66,1.03.52,1.92,1.03,2.67,1.54.76.5,1.44,1.06,2.04,1.66.6.6,1.15,1.29,1.64,2.08s.98,1.72,1.46,2.81c.5,1.14.88,2.56,1.12,4.25l.02.29c.08.62.15,1.28.2,1.98.05.7.07,1.44.07,2.22,0,2.82-.46,5.36-1.38,7.63-.92,2.27-2.19,4.27-3.82,5.99.44.47.85.92,1.22,1.34.37.42.7.81.98,1.15.28.34.5.64.66.89.16.25.24.44.24.55,0,.18-.14.39-.43.65-.29.25-.64.52-1.07.82s-.9.59-1.4.88c-.5.29-.98.55-1.42.78-.44.23-.81.42-1.12.56-.31.15-.48.22-.51.22-.13,0-.25-.04-.35-.11-.11-.07-.2-.15-.28-.23l-3-3c-1.38.57-2.8,1.01-4.25,1.33-1.45.32-2.99.48-4.61.48h-.59Zm-4.64-17.92c0,1.12.11,2.24.32,3.36.21,1.11.57,2.16,1.07,3.14.02.02.02.03.02.05.59.99,1.36,1.8,2.33,2.42.97.62,2.19.93,3.65.93l.49-.05-.29-.34c-.38-.42-.68-.8-.93-1.12-.24-.33-.37-.57-.37-.73,0-.31.23-.59.68-.83l5.69-2.86c.1-.05.18-.07.24-.07.13,0,.28.11.46.34.18.23.43.51.76.85.46-1.07.78-2.26.98-3.55.2-1.29.29-2.53.29-3.7,0-1.76-.31-3.32-.94-4.7-.63-1.38-1.71-2.53-3.26-3.45-.52-.31-1.08-.53-1.67-.66-.59-.13-1.25-.2-1.96-.2s-1.37.13-1.95.38c-.59.25-1.12.57-1.6.96s-.92.82-1.31,1.28c-.39.46-.73.9-1.03,1.31-.31.42-.57.94-.78,1.56-.21.62-.39,1.26-.53,1.93-.14.67-.24,1.33-.29,2-.06.67-.08,1.25-.08,1.76Z"/>
      <g id="g3036">
        <g id="layer1-9">
          <path id="hl" class="cls-5" d="m126.97,130.03c-17.71,0-20.07,17.77-20.07,17.77,0,0-2.36-17.77-20.07-17.77-12.4,0-23.61,7.97-23.61,23,0,19.86,35.93,39.83,43.68,68.99,7.38-29.14,43.68-49.13,43.68-68.99,0-15.03-11.22-23-23.61-23Z"/>
        </g>
        <path id="path3762-6-4" class="cls-4" d="m64.33,167.02s-1.89-22.99,5.34-29.74c8.13-7.59,32.73-2.77,32.73-2.77,0,0-16.72,6.01-23.38,11.76-6.36,5.49-14.69,20.75-14.69,20.75Z"/>
        <path id="path3762-6-2-3" class="cls-3" d="m106.2,160.17s3.46-21.39,10.52-25.9c7.94-5.08,26.02,4.93,26.02,4.93,0,0-13.38,4.83-19.78,8.55-6.12,3.56-16.76,12.43-16.76,12.43Z"/>
      </g>
      <g id="layer1-9-6">
        <path id="hl-8" class="cls-2" d="m46.32,68.22c-6.52,0-7.39,6.54-7.39,6.54,0,0-.87-6.54-7.39-6.54-4.56,0-8.69,2.93-8.69,8.46,0,7.31,13.22,14.66,16.07,25.39,2.72-10.72,16.07-18.08,16.07-25.39,0-5.53-4.13-8.46-8.69-8.46Z"/>
      </g>
    </g>
  </g>
</svg>